<?xml version="1.0" encoding="UTF-8"?>
<svg version="1.1" xmlns="http://www.w3.org/2000/svg" width="1278" height="630">
<path d="M0 0 C1.40705233 0.13260881 2.81411677 0.26508903 4.22119141 0.39746094 C18.86250975 1.79597464 33.55268138 3.24629882 48 6.0625 C48.78141357 6.21243408 49.56282715 6.36236816 50.36791992 6.5168457 C54.29375186 7.35613669 57.074791 8.23406583 60 11 C61.00488281 13.55615234 61.00488281 13.55615234 61.703125 16.5859375 C61.9609375 17.68164062 62.21875 18.77734375 62.484375 19.90625 C62.73703125 21.0509375 62.9896875 22.195625 63.25 23.375 C63.518125 24.51195312 63.78625 25.64890625 64.0625 26.8203125 C65.16998108 31.63446493 66.17025805 36.03868053 66 41 C60.39663132 42.59866353 55.57022621 43.25151354 49.765625 43.08984375 C48.20573241 43.0694125 46.64583643 43.04923837 45.0859375 43.02929688 C42.67269833 42.98604623 40.25969857 42.93771774 37.84667969 42.88354492 C25.25194938 42.62190654 12.19556309 42.4220022 2 51 C-1.34289938 54.59361683 -2.25977079 57.27092041 -2.4375 62.0625 C-2.22733317 66.18547861 -1.97136184 68.93859689 1 72 C8.19112381 76.19587541 16.24162923 77.55647087 24.3125 79.125 C25.55451172 79.37636719 26.79652344 79.62773437 28.07617188 79.88671875 C29.30529297 80.13292969 30.53441406 80.37914062 31.80078125 80.6328125 C33.61231689 81.00841309 33.61231689 81.00841309 35.46044922 81.39160156 C38.95611284 82.07187689 38.95611284 82.07187689 42.37158203 82.13183594 C45.68333259 82.31323153 48.0009944 82.56720234 51 84 C54.0926886 88.32476653 55.63426256 92.99989805 57.25 98 C57.7207747 99.32451959 58.19599845 100.64746675 58.67578125 101.96875 C62 111.27407887 62 111.27407887 62 114 C61.2565332 114.06993164 60.51306641 114.13986328 59.74707031 114.21191406 C29.58275018 115.02425956 29.58275018 115.02425956 3.66015625 127.55859375 C-2.40263598 136.90090349 -2.16273858 150.12469231 -2.09765625 160.84765625 C-2.09553383 162.19361122 -2.09553383 162.19361122 -2.09336853 163.5667572 C-2.0878251 166.39870714 -2.07528358 169.23057445 -2.0625 172.0625 C-2.05747767 173.99674364 -2.05291606 175.93098853 -2.04882812 177.86523438 C-2.03787429 182.57685417 -2.02064953 187.28841313 -2 192 C-11.67254863 192.09763989 -21.22831132 191.94730043 -30.875 191.125 C-31.91140625 191.04636719 -32.9478125 190.96773437 -34.015625 190.88671875 C-38.90535916 190.48642565 -43.78261366 189.98529295 -48.6328125 189.2421875 C-49.82608154 189.06598877 -49.82608154 189.06598877 -51.04345703 188.88623047 C-53 188 -53 188 -54.08520508 185.89680481 C-55.17339114 182.45093672 -55.40665368 179.37565446 -55.59326172 175.76489258 C-55.6317989 175.05563566 -55.67033607 174.34637875 -55.71004105 173.6156292 C-55.8342732 171.27147154 -55.94503636 168.92691316 -56.0546875 166.58203125 C-56.13796426 164.91932647 -56.22145406 163.25663234 -56.30514526 161.59394836 C-57.1455222 144.46278807 -57.65357357 127.32289709 -58.06485748 110.17677689 C-58.12609613 107.64213174 -58.18951007 105.10754823 -58.25335693 102.57296753 C-59.0170255 72.04362731 -59.24935875 41.53877439 -59 11 C-56.18180633 9.8937117 -53.36267234 8.78992799 -50.54296875 7.6875 C-49.75724487 7.37876953 -48.971521 7.07003906 -48.1619873 6.75195312 C-31.33789716 0.18308156 -18.06280198 -1.76666555 0 0 Z " fill="#D47F2C" transform="translate(227,225)"/>
<path d="M0 0 C0 0.66 0 1.32 0 2 C-5.60336868 3.59866353 -10.42977379 4.25151354 -16.234375 4.08984375 C-17.79426759 4.0694125 -19.35416357 4.04923837 -20.9140625 4.02929688 C-23.32730167 3.98604623 -25.74030143 3.93771774 -28.15332031 3.88354492 C-40.74805062 3.62190654 -53.80443691 3.4220022 -64 12 C-67.34289938 15.59361683 -68.25977079 18.27092041 -68.4375 23.0625 C-68.22733317 27.18547861 -67.97136184 29.93859689 -65 33 C-57.80887619 37.19587541 -49.75837077 38.55647087 -41.6875 40.125 C-39.82448242 40.50205078 -39.82448242 40.50205078 -37.92382812 40.88671875 C-36.69470703 41.13292969 -35.46558594 41.37914062 -34.19921875 41.6328125 C-32.99152832 41.88321289 -31.78383789 42.13361328 -30.53955078 42.39160156 C-27.04388716 43.07187689 -27.04388716 43.07187689 -23.62841797 43.13183594 C-20.31666741 43.31323153 -17.9990056 43.56720234 -15 45 C-11.9073114 49.32476653 -10.36573744 53.99989805 -8.75 59 C-8.2792253 60.32451959 -7.80400155 61.64746675 -7.32421875 62.96875 C-4 72.27407887 -4 72.27407887 -4 75 C-4.7434668 75.06993164 -5.48693359 75.13986328 -6.25292969 75.21191406 C-36.41724982 76.02425956 -36.41724982 76.02425956 -62.33984375 88.55859375 C-68.40263598 97.90090349 -68.16273858 111.12469231 -68.09765625 121.84765625 C-68.09553383 123.19361122 -68.09553383 123.19361122 -68.09336853 124.5667572 C-68.0878251 127.39870714 -68.07528358 130.23057445 -68.0625 133.0625 C-68.05747767 134.99674364 -68.05291606 136.93098853 -68.04882812 138.86523438 C-68.03787429 143.57685417 -68.02064953 148.28841313 -68 153 C-71.41110481 148.81358242 -74.3330343 144.51051333 -77.1875 139.9375 C-77.63802734 139.23044922 -78.08855469 138.52339844 -78.55273438 137.79492188 C-78.98263672 137.10849609 -79.41253906 136.42207031 -79.85546875 135.71484375 C-80.24371826 135.09730225 -80.63196777 134.47976074 -81.03198242 133.84350586 C-82.04692496 131.91063546 -82.55880076 130.13123664 -83 128 C-82.34 128 -81.68 128 -81 128 C-81.268125 127.37738281 -81.53625 126.75476563 -81.8125 126.11328125 C-83.23694466 122.75365355 -84.62656032 119.38071341 -86 116 C-86.45802002 114.87392334 -86.45802002 114.87392334 -86.92529297 113.72509766 C-91.99342542 101.14974653 -96.12196539 88.53194499 -99.39794922 75.37402344 C-99.90686456 73.36725428 -100.46555113 71.37320625 -101.03515625 69.3828125 C-105.67717219 51.72156117 -105.02089291 31.84290299 -96.3125 15.6875 C-88.71285261 3.92523167 -76.55973015 -2.66313026 -63.17578125 -5.625 C-42.17643026 -9.4191111 -20.13878755 -6.66780025 0 0 Z " fill="#D7A057" transform="translate(293,264)"/>
<path d="M0 0 C-0.96099609 1.27230469 -0.96099609 1.27230469 -1.94140625 2.5703125 C-16.78685154 22.54559753 -23.22189415 42.9215844 -23.25 67.75 C-23.25200912 68.79095322 -23.25200912 68.79095322 -23.25405884 69.85293579 C-23.24945879 80.83643255 -22.48336257 91.28053129 -20 102 C-19.76023438 103.12019531 -19.52046875 104.24039063 -19.2734375 105.39453125 C-17.99392497 110.98361073 -16.25466909 116.18092347 -14.0234375 121.45703125 C-12.93270608 124.16720742 -12.05856288 126.89935428 -11.1875 129.6875 C-8.7452931 137.08926552 -5.46819535 144.03732337 -2 151 C-1.59861816 151.80679199 -1.19723633 152.61358398 -0.78369141 153.44482422 C4.48826626 163.95495768 10.05779117 174.09930529 16.64746094 183.84716797 C20 188.81948689 20 188.81948689 20 191 C10.67905189 191.27280824 1.4819729 190.8487809 -7.8125 190.125 C-8.86107178 190.04652832 -9.90964355 189.96805664 -10.98999023 189.88720703 C-15.88936281 189.48411613 -20.77676806 188.98692066 -25.63671875 188.2421875 C-26.82914185 188.06598877 -26.82914185 188.06598877 -28.0456543 187.88623047 C-30 187 -30 187 -31.08506775 184.89680481 C-32.17342356 181.4509165 -32.40665009 178.37572397 -32.59326172 174.76489258 C-32.6317989 174.05563566 -32.67033607 173.34637875 -32.71004105 172.6156292 C-32.8342732 170.27147154 -32.94503636 167.92691316 -33.0546875 165.58203125 C-33.13796426 163.91932647 -33.22145406 162.25663234 -33.30514526 160.59394836 C-34.1455222 143.46278807 -34.65357357 126.32289709 -35.06485748 109.17677689 C-35.12609613 106.64213174 -35.18951007 104.10754823 -35.25335693 101.57296753 C-36.0170255 71.04362731 -36.24935875 40.53877439 -36 10 C-33.16526113 8.88228784 -30.32916057 7.76826568 -27.4921875 6.65625 C-26.69965576 6.34333008 -25.90712402 6.03041016 -25.09057617 5.70800781 C-5.41608741 -1.98851518 -5.41608741 -1.98851518 0 0 Z " fill="#C87327" transform="translate(204,226)"/>
<path d="M0 0 C5.94 0 11.88 0 18 0 C27.91797158 17.73213101 36.97590647 35.79622512 46 54 C46.33 36.18 46.66 18.36 47 0 C51.29 0 55.58 0 60 0 C60 25.74 60 51.48 60 78 C54.39 78 48.78 78 43 78 C32.88482682 60.38002092 24.03191318 42.19863103 15 24 C14.67 41.82 14.34 59.64 14 78 C9.38 78 4.76 78 0 78 C0 52.26 0 26.52 0 0 Z " fill="#000000" transform="translate(689,339)"/>
<path d="M0 0 C0.70125 0.845625 1.4025 1.69125 2.125 2.5625 C2.82625 3.305 3.5275 4.0475 4.25 4.8125 C9.77700761 12.91877783 9.6249647 21.74083848 9.57104492 31.16357422 C9.56254177 33.42638461 9.59135627 35.68665685 9.62304688 37.94921875 C9.66921178 47.67687204 8.43787283 55.82868164 3.5 64.375 C-4.48135251 71.72624573 -13.82272642 75.16414246 -24.6796875 74.8125 C-33.65188624 73.79075495 -42.62457038 71.60988518 -48.625 64.484375 C-54.93421733 55.56653897 -55.24787034 46.71643288 -55.24560547 36.11230469 C-55.2499629 33.83191308 -55.28630002 31.55348578 -55.32421875 29.2734375 C-55.39876282 19.4942291 -54.21626094 11.34545162 -49.25 2.75 C-36.22005059 -9.25126919 -14.11342913 -11.96573339 0 0 Z M-37.3125 11.625 C-40.63339124 17.86827553 -40.13288486 24.1318347 -40.17016602 31.02124023 C-40.18165314 32.49822596 -40.20205328 33.97517125 -40.23168945 35.4519043 C-40.54859018 47.10079414 -40.54859018 47.10079414 -35.875 57.5625 C-31.11053126 61.35462818 -27.20231879 62.94154396 -21.06640625 62.83984375 C-15.621344 62.15071822 -11.85477302 59.76837449 -8.4375 55.5625 C-5.13018701 49.21245906 -5.65479507 42.87240379 -5.63476562 35.82788086 C-5.6250799 33.76700158 -5.59403922 31.70712913 -5.5625 29.64648438 C-5.52902295 21.12239088 -5.62034047 15.41670208 -11.25 8.75 C-15.55005275 5.16662271 -19.08962959 4.07867972 -24.75390625 4.25 C-30.19637827 5.0518375 -33.92004417 7.3626837 -37.3125 11.625 Z " fill="#000000" transform="translate(662.875,344.4375)"/>
<path d="M0 0 C4.07940172 4.17427153 4.52157156 9.1564814 5.34375 14.6875 C0.72375 14.6875 -3.89625 14.6875 -8.65625 14.6875 C-9.64625 12.7075 -10.63625 10.7275 -11.65625 8.6875 C-16.1736958 5.53579363 -20.31703039 4.94150125 -25.65625 5.6875 C-29.04062013 6.50457062 -29.04062013 6.50457062 -31.65625 8.6875 C-35.01899048 14.96461556 -35.00431885 20.67455726 -34.65625 27.6875 C-34.13675781 27.33816406 -33.61726562 26.98882812 -33.08203125 26.62890625 C-25.99554961 22.00500973 -25.99554961 22.00500973 -21.65625 21.6875 C-21.00011719 21.63722656 -20.34398437 21.58695312 -19.66796875 21.53515625 C-12.70077574 21.23432754 -6.95501934 22.81319924 -0.90625 26.25 C5.50757439 33.19830975 7.08084525 40.20861726 6.93286133 49.421875 C6.55944952 56.69247013 4.65120771 62.11269583 -0.34765625 67.515625 C-7.35557718 73.54331482 -16.26908178 75.03779629 -25.28125 74.6875 C-34.12365174 73.69206795 -40.87100616 70.46931217 -46.5 63.53125 C-49.91963493 58.07831863 -49.9768347 53.15693037 -49.9921875 46.890625 C-49.9988443 45.94241882 -50.0055011 44.99421265 -50.01235962 44.01727295 C-50.02246768 42.01348809 -50.02717721 40.0096697 -50.02685547 38.00585938 C-50.03121539 34.96166499 -50.06751811 31.91893685 -50.10546875 28.875 C-50.11134017 26.92187992 -50.11530739 24.968753 -50.1171875 23.015625 C-50.13155853 22.11531555 -50.14592957 21.2150061 -50.16073608 20.28741455 C-50.10681846 12.71582713 -48.2028586 6.70322071 -43.28125 0.875 C-30.66479991 -9.63870841 -13.21519612 -10.47241957 0 0 Z M-31.65625 37.6875 C-32.8628125 38.491875 -32.8628125 38.491875 -34.09375 39.3125 C-36.65844556 43.21083725 -36.23324787 47.16884195 -35.65625 51.6875 C-34.48148544 56.23443045 -32.68388738 59.18635152 -28.65625 61.6875 C-23.98148283 62.90633368 -19.87069114 63.09231371 -15.28125 61.5625 C-12.34113019 59.46241442 -10.63952503 57.71635099 -8.65625 54.6875 C-8.02494706 51.05513466 -8.02494706 51.05513466 -8.15625 47.1875 C-8.1459375 45.8984375 -8.135625 44.609375 -8.125 43.28125 C-8.7272848 39.20697048 -9.77609409 37.56765591 -12.65625 34.6875 C-19.18855147 31.42134926 -26.13428056 33.71168201 -31.65625 37.6875 Z " fill="#000000" transform="translate(912.65625,344.3125)"/>
<path d="M0 0 C6.01641549 5.18373421 9.26964485 11.2988724 10.28286743 19.20805359 C10.39152463 21.43568359 10.41633937 23.64483642 10.3984375 25.875 C10.40130768 26.68437012 10.40417786 27.49374023 10.40713501 28.32763672 C10.40916064 30.0250723 10.40373689 31.72253203 10.39111328 33.41992188 C10.37503729 35.99402878 10.39101279 38.56656598 10.41015625 41.140625 C10.40817355 42.80208674 10.40432932 44.46354752 10.3984375 46.125 C10.40754654 47.25977783 10.40754654 47.25977783 10.4168396 48.41748047 C10.31453964 56.3260627 8.1489601 63.87691231 3 70 C-4.32671652 76.11976322 -12.30728645 77.31878039 -21.625 76.8125 C-29.50185295 76.00722831 -36.59059966 74.22547782 -42 68 C-48.62550371 59.59268724 -47.69482616 49.44467071 -47.54199219 39.31347656 C-47.49999959 36.37497164 -47.50094625 33.43875585 -47.5078125 30.5 C-47.49732196 28.61196341 -47.48438459 26.7239385 -47.46875 24.8359375 C-47.46854858 23.96802582 -47.46834717 23.10011414 -47.46813965 22.2059021 C-47.30611216 13.77442212 -45.20159973 7.0637864 -39 1 C-27.89015327 -6.53882457 -11.33763059 -7.52940535 0 0 Z M-30.63696289 13.08032227 C-32.51935291 17.11247383 -32.44914768 20.62803669 -32.43359375 25.02734375 C-32.4388356 25.89388077 -32.44407745 26.76041779 -32.44947815 27.6532135 C-32.45588593 29.48128185 -32.45457748 31.3093915 -32.44604492 33.13745117 C-32.43753794 35.92506805 -32.4663074 38.71063238 -32.49804688 41.49804688 C-32.49965922 43.27864522 -32.49908072 45.05924718 -32.49609375 46.83984375 C-32.50732773 47.66814194 -32.51856171 48.49644012 -32.53013611 49.34983826 C-32.46626177 54.68967135 -31.58246479 57.78906092 -28 62 C-23.26223538 64.87981771 -19.45009017 65.47671756 -14.08203125 64.64453125 C-10.12149953 63.41847546 -8.11798927 60.67033214 -5.89208984 57.34472656 C-4.57517165 53.88340136 -4.67471455 50.45144227 -4.6640625 46.796875 C-4.6574057 46.00025452 -4.6507489 45.20363403 -4.64389038 44.38287354 C-4.63377909 42.69846906 -4.62907289 41.01402464 -4.62939453 39.32958984 C-4.6250382 36.772426 -4.58875193 34.217013 -4.55078125 31.66015625 C-4.54490909 30.01823502 -4.54094237 28.37630565 -4.5390625 26.734375 C-4.52469147 25.97888367 -4.51032043 25.22339233 -4.49551392 24.44500732 C-4.54259009 18.88108072 -5.94375949 14.66876591 -9 10 C-12.56881009 6.73708791 -16.11483835 6.47747744 -20.78515625 6.6484375 C-25.19997136 7.3492018 -27.9382131 9.65063591 -30.63696289 13.08032227 Z " fill="#000000" transform="translate(979,342)"/>
<path d="M0 0 C4.95 0 9.9 0 15 0 C15.01458252 1.72557129 15.02916504 3.45114258 15.04418945 5.22900391 C15.09593776 10.94481006 15.16124958 16.66035473 15.23571491 22.37590981 C15.2803494 25.83961259 15.31962018 29.30319964 15.34643555 32.76708984 C15.37753763 36.75383392 15.43232449 40.74008676 15.48828125 44.7265625 C15.49467117 45.96427399 15.5010611 47.20198547 15.50764465 48.47720337 C15.55149975 56.69026836 15.55149975 56.69026836 19 64 C22.73993543 66.60925727 26.18316908 67.59415017 30.7734375 67.42578125 C35.21443599 66.57653768 39.24608289 64.47702709 43 62 C45.28165474 58.57751788 45.26729869 57.27281938 45.31884766 53.2434082 C45.33871735 52.06241043 45.35858704 50.88141266 45.37905884 49.66462708 C45.39061005 48.38955795 45.40216125 47.11448883 45.4140625 45.80078125 C45.43342865 44.49545944 45.4527948 43.19013763 45.4727478 41.84526062 C45.52407634 38.37819478 45.56369793 34.91109011 45.60089111 31.44384766 C45.64092641 27.90452464 45.69202087 24.36536323 45.7421875 20.82617188 C45.83895522 13.88422605 45.92233491 6.94218555 46 0 C50.95 0 55.9 0 61 0 C61 25.74 61 51.48 61 78 C56.38 78 51.76 78 47 78 C46.67 76.35 46.34 74.7 46 73 C45.52691406 73.33773437 45.05382812 73.67546875 44.56640625 74.0234375 C36.89485187 79.19762427 28.86928992 81.24279916 19.625 79.5703125 C13.02610719 77.94070787 8.3418582 75.25825499 4 70 C-0.2600814 61.91860783 -0.54052168 53.97753972 -0.390625 45.01953125 C-0.38496521 43.72552902 -0.37930542 42.43152679 -0.37347412 41.09831238 C-0.35837084 37.69672392 -0.31922741 34.29584415 -0.2746582 30.89453125 C-0.23336959 27.40830058 -0.21539227 23.92195278 -0.1953125 20.43554688 C-0.15271305 13.62338157 -0.08249418 6.81179801 0 0 Z " fill="#000000" transform="translate(426,339)"/>
<path d="M0 0 C4.300262 4.66527097 4.95006505 9.53559837 5.47265625 15.59765625 C0.85265625 15.59765625 -3.76734375 15.59765625 -8.52734375 15.59765625 C-9.06359375 14.33953125 -9.59984375 13.08140625 -10.15234375 11.78515625 C-11.62088077 8.91414096 -12.49306202 7.62441272 -15.08984375 5.59765625 C-20.95081242 3.89264718 -26.87682873 3.51581339 -32.58984375 5.84765625 C-34.71124214 7.76375802 -35.74081987 8.84482266 -36.52734375 11.59765625 C-36.76785182 14.65655767 -36.76785182 14.65655767 -35.52734375 17.59765625 C-28.96107299 22.07424962 -21.48626063 24.11070073 -13.9765625 26.50976562 C-6.73588299 28.91541734 -0.33816635 31.38847878 3.91015625 38.09765625 C6.7506582 44.55000334 6.7934569 53.00976316 4.28515625 59.59765625 C0.15961746 66.42613425 -5.2720126 69.66586363 -12.52734375 72.59765625 C-22.92869429 74.92899344 -34.47717593 74.13405767 -43.90234375 68.97265625 C-49.50964404 65.34440312 -52.4397442 60.8604549 -54.52734375 54.59765625 C-54.52734375 52.28765625 -54.52734375 49.97765625 -54.52734375 47.59765625 C-49.90734375 47.59765625 -45.28734375 47.59765625 -40.52734375 47.59765625 C-40.23859375 49.18578125 -39.94984375 50.77390625 -39.65234375 52.41015625 C-38.47305147 56.37619066 -38.47305147 56.37619066 -35.3828125 58.9296875 C-28.85974974 60.96376083 -22.13631146 61.8118983 -15.65234375 59.28515625 C-12.32692438 57.80463424 -12.32692438 57.80463424 -10.52734375 54.59765625 C-9.78102476 48.98019296 -9.78102476 48.98019296 -12.25390625 44.1171875 C-17.38114373 39.36924007 -25.32600509 38.09385528 -31.82617188 36.08007812 C-46.76014539 31.2447228 -46.76014539 31.2447228 -50.69604492 24.63500977 C-53.45171137 18.50294377 -53.41547102 11.77089736 -51.46484375 5.41015625 C-48.98738916 -0.40144284 -44.33225607 -3.86361981 -38.58984375 -6.21484375 C-25.6697061 -10.38183471 -10.24424107 -9.49750824 0 0 Z " fill="#000000" transform="translate(555.52734375,345.40234375)"/>
<path d="M0 0 C4.65099101 4.65099101 6.29114692 9.42211539 6.375 15.9375 C6.27958476 21.12172818 5.62201114 24.08431228 2 28 C-0.75 30.375 -0.75 30.375 -3 32 C-2.113125 32.53625 -1.22625 33.0725 -0.3125 33.625 C3.68737173 36.27894333 6.83634973 39.67269946 9 44 C9.63393562 51.91899912 10.12251793 59.51752155 5 66 C-1.90591032 73.64020964 -9.7232097 75.45107324 -19.75390625 75.99609375 C-29.00863053 76.0072306 -35.84070143 73.50736106 -42.79296875 67.43359375 C-47.21054202 62.91109 -47.8079086 59.24297044 -48 53 C-43.38 53 -38.76 53 -34 53 C-33.01 54.98 -32.02 56.96 -31 59 C-27.03305693 62.59504215 -23.39032478 63.29710036 -18.0625 63.21875 C-14.03438557 62.79152574 -11.06353322 61.17014037 -8.36328125 58.19921875 C-5.97841111 54.3519927 -6.24988638 50.36622737 -7 46 C-10.01209444 41.74763138 -12.97301905 40.11710688 -18 39 C-21.66687761 38.56443167 -25.31478383 38.26964996 -29 38 C-29 34.37 -29 30.74 -29 27 C-28.11957031 26.96261719 -27.23914063 26.92523438 -26.33203125 26.88671875 C-24.58986328 26.78810547 -24.58986328 26.78810547 -22.8125 26.6875 C-21.66394531 26.62949219 -20.51539063 26.57148438 -19.33203125 26.51171875 C-15.82000728 25.97235751 -13.83700902 25.1005277 -11 23 C-9.27484369 19.54968739 -9.50322076 15.77283696 -10 12 C-12.19831364 8.96784325 -13.44963194 8.18345602 -17 7 C-22.20018211 6.60753343 -25.68532244 6.96011354 -30 10 C-31.36110098 12.30261445 -32.13150563 14.44276659 -33 17 C-37.62 17 -42.24 17 -47 17 C-46.76922912 9.6153319 -45.27712636 5.26518716 -40 0 C-29.00335409 -9.03870652 -11.21006677 -7.68937142 0 0 Z " fill="#000000" transform="translate(842,343)"/>
<path d="M0 0 C15.84 0 31.68 0 48 0 C48 3.96 48 7.92 48 12 C37.11 12 26.22 12 15 12 C15 19.26 15 26.52 15 34 C24.24 34 33.48 34 43 34 C43 37.63 43 41.26 43 45 C33.76 45 24.52 45 15 45 C15 55.89 15 66.78 15 78 C10.05 78 5.1 78 0 78 C0 52.26 0 26.52 0 0 Z " fill="#000000" transform="translate(366,339)"/>
<path d="M0 0 C6.89094802 5.60657359 10.13273518 11.65104828 11.59765625 20.3359375 C11.81331677 24.69195334 11.82573423 29.04784548 11.83789062 33.40844727 C11.84754768 35.49992396 11.87858657 37.59039602 11.91015625 39.68164062 C11.99406448 50.16439314 11.14217963 59.2379138 4.33203125 67.58203125 C-2.1279038 74.11471332 -9.67016707 76.39425455 -18.71484375 76.6484375 C-28.53399916 76.43473309 -35.29627486 74.48079499 -42.48828125 67.59375 C-49.74029114 59.03933833 -49.61492658 49.13943627 -49.64257812 38.484375 C-49.65222236 36.2391975 -49.6832385 33.99496054 -49.71484375 31.75 C-49.80744239 19.59811784 -48.77202494 10.47398772 -39.97265625 1.4765625 C-29.39989469 -7.32871612 -11.27257557 -7.80832064 0 0 Z M-35.71484375 9.4609375 C-40.58430354 17.75705418 -40.87157962 26.42282068 -40.77734375 35.8359375 C-40.78894531 36.99480469 -40.80054688 38.15367187 -40.8125 39.34765625 C-40.78452114 47.6014205 -40.37910063 55.65415925 -35.02734375 62.2734375 C-28.00704015 67.78939033 -22.23852363 69.19417111 -13.40234375 68.3359375 C-7.80394086 66.68934842 -3.30811341 63.4742906 -0.40234375 58.3359375 C2.5933689 51.03569743 3.03350079 44.08361387 2.91015625 36.2734375 C2.91337891 35.24927734 2.91660156 34.22511719 2.91992188 33.16992188 C2.85802487 24.36366626 2.35197858 16.36899813 -3.40234375 9.3359375 C-9.3271021 3.59778571 -14.05012586 2.98299458 -22.09765625 3.0546875 C-27.87171575 3.54609682 -31.51075295 5.59771893 -35.71484375 9.4609375 Z " fill="#000000" transform="translate(623.40234375,227.6640625)"/>
<path d="M0 0 C37.42710997 0 37.42710997 0 47.63671875 9.52734375 C56.39310805 20.28218826 54.81974016 37.02322044 54 50 C52.85002327 59.49689115 49.43090411 65.56909589 42.75 72.25 C29.37640843 80.76046736 15.96550095 79 0 79 C0 52.93 0 26.86 0 0 Z M9 8 C9 28.79 9 49.58 9 71 C23.80043337 71.28662764 23.80043337 71.28662764 36.8125 66.4375 C44.18146596 58.2263665 44.78347798 49.67085043 44.625 39 C44.64433594 37.69804687 44.66367187 36.39609375 44.68359375 35.0546875 C44.64349523 27.11518103 43.87011927 20.49754067 39 14 C29.62649684 6.20159784 22.03392404 8 9 8 Z " fill="#000000" transform="translate(656,224)"/>
<path d="M0 0 C4.55850023 3.6748779 7.14314777 6.85730482 8.78125 12.48828125 C8.96875 15.92578125 8.96875 15.92578125 8.78125 18.48828125 C5.81125 18.48828125 2.84125 18.48828125 -0.21875 18.48828125 C-0.63125 17.25078125 -1.04375 16.01328125 -1.46875 14.73828125 C-3.16484799 10.25233983 -5.03735648 7.54650543 -9.44921875 5.40625 C-15.62181176 3.36032707 -22.71507017 3.66811027 -28.84375 5.67578125 C-31.61751514 7.79260202 -32.89446537 9.25114105 -34.21875 12.48828125 C-34.71293225 16.44173926 -34.76646093 18.60098954 -32.65625 22.01953125 C-29.69150494 25.02228586 -26.69583289 26.19116611 -22.78125 27.48828125 C-21.34625408 27.99711365 -19.91135967 28.50623242 -18.4765625 29.015625 C-17.05729384 29.50651671 -15.63802309 29.99740235 -14.21875 30.48828125 C3.36941967 36.75383429 3.36941967 36.75383429 7.71875 43.48828125 C10.04725843 50.13908346 10.07457432 58.55331508 7.15625 64.98828125 C3.37076334 71.23170543 -1.38668389 74.15904696 -8.3125 75.984375 C-19.00754006 77.83875695 -28.94167363 76.80447254 -38.53125 71.73828125 C-42.61830506 68.31656073 -45.52787877 64.56089495 -47.21875 59.48828125 C-47.25829234 57.155283 -47.26276732 54.82119936 -47.21875 52.48828125 C-44.24875 52.48828125 -41.27875 52.48828125 -38.21875 52.48828125 C-37.826875 53.89078125 -37.435 55.29328125 -37.03125 56.73828125 C-35.60174284 61.01338013 -34.18796082 63.12565576 -30.21875 65.48828125 C-23.87986962 68.4886119 -16.43057888 68.69632519 -9.69921875 66.765625 C-6.5442077 65.31982216 -4.53031246 63.83878902 -2.21875 61.23828125 C-0.50609531 56.52848085 -0.50609531 52.44808165 -2.21875 47.73828125 C-7.63444237 41.64562733 -17.26150384 39.64686429 -24.796875 37.22070312 C-31.78721044 34.87808304 -37.78999482 32.30255312 -42.6796875 26.63671875 C-45.5326967 20.80035983 -45.09989356 14.81218083 -44.21875 8.48828125 C-41.87348976 2.76208014 -37.75990327 -0.30583495 -32.24609375 -2.8203125 C-22.02241253 -6.30700147 -9.08770236 -6.1917972 0 0 Z " fill="#000000" transform="translate(833.21875,227.51171875)"/>
<path d="M0 0 C2.97 0 5.94 0 9 0 C9.33 12.87 9.66 25.74 10 39 C18.30427347 29.01809552 26.42729233 18.96595042 34.2578125 8.609375 C34.9703418 7.67967896 34.9703418 7.67967896 35.69726562 6.73120117 C36.85246708 5.19605621 37.95035953 3.6181554 39.0390625 2.03515625 C41 0 41 0 43.578125 -0.48828125 C44.90070312 -0.40126953 44.90070312 -0.40126953 46.25 -0.3125 C47.14203125 -0.26738281 48.0340625 -0.22226563 48.953125 -0.17578125 C49.62859375 -0.11777344 50.3040625 -0.05976563 51 0 C50.40571044 3.12151233 49.47912631 4.97084717 47.4453125 7.3984375 C46.91752197 8.03612061 46.38973145 8.67380371 45.84594727 9.33081055 C45.27803467 10.00539307 44.71012207 10.67997559 44.125 11.375 C42.94884866 12.80568542 41.77307477 14.2366812 40.59765625 15.66796875 C38.83432623 17.79891713 37.06488676 19.92341928 35.27685547 22.03369141 C33.69046904 23.90638526 32.12558022 25.79535026 30.5625 27.6875 C30.07217285 28.25065918 29.5818457 28.81381836 29.07666016 29.39404297 C27.56463591 31.15842464 27.56463591 31.15842464 26 34 C26.74081335 38.78799364 30.69329357 43.05994597 33.5 46.9375 C34.58765753 48.44761573 35.6748903 49.95803747 36.76171875 51.46875 C37.30618652 52.22414063 37.8506543 52.97953125 38.41162109 53.7578125 C39.9052576 55.86625972 41.3458033 58.00018583 42.76953125 60.15625 C43.20007813 60.79570557 43.630625 61.43516113 44.07421875 62.09399414 C44.87691209 63.28901335 45.66567693 64.49355438 46.4375 65.70874023 C49.46275524 70.14113723 51.94714155 71.0214318 57 72 C57 74.31 57 76.62 57 79 C55.29395413 79.1366051 53.5846456 79.23271654 51.875 79.3125 C50.92367187 79.37050781 49.97234375 79.42851562 48.9921875 79.48828125 C43.69240194 78.62343374 41.16360779 75.56433323 38.09228516 71.43530273 C35.96587863 68.34352905 33.91090231 65.21456025 31.875 62.0625 C31.17246094 60.99064453 30.46992187 59.91878906 29.74609375 58.81445312 C28.40475795 56.76695094 27.06697837 54.71711297 25.73339844 52.66455078 C23.84449 49.76095265 21.93063648 46.87594812 20 44 C15.10985882 46.15394339 12.36624537 49.22693451 10 54 C9.16905695 58.34298683 9.11489069 62.58728785 9.125 67 C9.104375 68.15628906 9.08375 69.31257813 9.0625 70.50390625 C9.01567755 73.33666436 8.99553346 76.1669365 9 79 C6.03 79 3.06 79 0 79 C0 52.93 0 26.86 0 0 Z " fill="#000000" transform="translate(861,224)"/>
<path d="M0 0 C4.29 0 8.58 0 13 0 C13.36125977 1.05872314 13.72251953 2.11744629 14.09472656 3.20825195 C15.18647083 6.40762563 16.27848657 9.60690653 17.37060547 12.80615234 C18.63073866 16.49764808 19.89006589 20.18941753 21.14892578 23.88134766 C24.28133665 33.06408049 27.42466882 42.24270955 30.6015625 51.41015625 C31.4287177 53.80228538 32.25558661 56.19451331 33.08239746 58.58676147 C33.60978695 60.10933161 34.13883393 61.63132866 34.66955566 63.15274048 C35.40614397 65.26451274 36.13721846 67.37811986 36.8671875 69.4921875 C37.28081543 70.68183105 37.69444336 71.87147461 38.12060547 73.09716797 C39 76 39 76 39 79 C35.7 79 32.4 79 29 79 C27.82784886 75.56428147 26.66207853 72.1266243 25.5 68.6875 C25.16613281 67.71103516 24.83226562 66.73457031 24.48828125 65.72851562 C24.01455078 64.32182617 24.01455078 64.32182617 23.53125 62.88671875 C23.23798828 62.02264404 22.94472656 61.15856934 22.64257812 60.26831055 C22 58 22 58 22 55 C12.1 55 2.2 55 -8 55 C-8.99 58.63 -9.98 62.26 -11 66 C-11.7154438 68.39996699 -12.44198295 70.79670396 -13.1875 73.1875 C-13.53167969 74.29480469 -13.87585938 75.40210938 -14.23046875 76.54296875 C-14.48441406 77.35378906 -14.73835938 78.16460937 -15 79 C-18.3 79 -21.6 79 -25 79 C-22.38730776 67.43786194 -18.54757843 56.34149202 -14.75 45.125 C-13.45063868 41.27427169 -12.15409924 37.42260229 -10.859375 33.5703125 C-10.54182251 32.62633606 -10.22427002 31.68235962 -9.89709473 30.70977783 C-6.47894616 20.51109347 -3.22913282 10.25982426 0 0 Z M6 9 C4.427944 13.92787863 2.86151601 18.85749697 1.30029297 23.78881836 C0.76831171 25.46639318 0.23479164 27.14348082 -0.30029297 28.82006836 C-1.06882638 31.22904275 -1.83182176 33.63971082 -2.59375 36.05078125 C-2.95466736 37.17592888 -2.95466736 37.17592888 -3.32287598 38.32380676 C-4.26652983 41.32537082 -5 43.8333449 -5 47 C2.92 47 10.84 47 19 47 C17.47450736 42.06893433 15.94613786 37.13896184 14.41015625 32.21118164 C13.88855803 30.53463911 13.36868837 28.85755777 12.85058594 27.17993164 C12.10545685 24.76825426 11.3541272 22.35858465 10.6015625 19.94921875 C10.3712735 19.19912033 10.1409845 18.44902191 9.90371704 17.67619324 C8.88158842 14.42278586 7.90516892 11.85775337 6 9 Z " fill="#000000" transform="translate(383,224)"/>
<path d="M0 0 C2.97 0 5.94 0 9 0 C9.00586624 0.72361221 9.01173248 1.44722443 9.01777649 2.19276428 C9.07583628 9.03379127 9.14798863 15.87454247 9.23571491 22.71524906 C9.28031906 26.23161053 9.31959638 29.7478588 9.34643555 33.2644043 C9.37757643 37.313281 9.43236099 41.36154538 9.48828125 45.41015625 C9.49467117 46.66458023 9.5010611 47.91900421 9.50764465 49.21144104 C9.61356052 55.52918361 9.79596045 60.47853399 13 66 C18.08330928 70.82914382 22.36803819 71.35286419 29.14453125 71.28125 C35.98483788 70.60751255 40.50670394 67.03793801 45 62 C45.33 61.67 45.66 61.34 46 61 C46.12350658 59.09839888 46.17793443 57.1922761 46.20532227 55.28686523 C46.22526749 54.0656749 46.24521271 52.84448456 46.26576233 51.58628845 C46.28274791 50.24372487 46.29962667 48.90115993 46.31640625 47.55859375 C46.33696947 46.19238139 46.35796577 44.82617549 46.37937927 43.4599762 C46.43466535 39.85805476 46.48404563 36.25607529 46.53222656 32.65405273 C46.58239403 28.98090428 46.63810485 25.30784045 46.69335938 21.63476562 C46.80102082 14.42324868 46.90244787 7.21166153 47 0 C49.97 0 52.94 0 56 0 C56 26.07 56 52.14 56 79 C53.36 79 50.72 79 48 79 C47.505 75.04 47.505 75.04 47 71 C46.13375 71.763125 45.2675 72.52625 44.375 73.3125 C36.70053382 79.68682132 28.69525432 80.73046437 19 80 C12.92826769 78.81367692 9.01982082 76.84743099 5 72 C4.1646875 71.0409375 4.1646875 71.0409375 3.3125 70.0625 C0.39637658 65.48002034 -0.24887631 60.97469565 -0.22705078 55.62744141 C-0.22689972 54.38660797 -0.22674866 53.14577454 -0.22659302 51.86734009 C-0.21638225 50.52874589 -0.2059503 49.19015337 -0.1953125 47.8515625 C-0.19157813 46.47008469 -0.18873316 45.08860422 -0.18673706 43.7071228 C-0.17913392 40.08706229 -0.15951437 36.46716457 -0.1373291 32.84716797 C-0.11679878 29.14683229 -0.10772004 25.44647008 -0.09765625 21.74609375 C-0.07626499 14.49732196 -0.04216964 7.24868387 0 0 Z " fill="#000000" transform="translate(435,224)"/>
<path d="M0 0 C0.95326172 -0.00193359 1.90652344 -0.00386719 2.88867188 -0.00585938 C4.41911133 0.0009082 4.41911133 0.0009082 5.98046875 0.0078125 C7.55538086 0.01071289 7.55538086 0.01071289 9.16210938 0.01367188 C20.17740713 0.07278796 31.16948503 0.54937149 42.16796875 1.1328125 C45.21391235 7.56017949 48.00010795 14.05420522 50.54296875 20.6953125 C50.8177002 21.39785156 51.09243164 22.10039062 51.37548828 22.82421875 C52.03389346 24.57200075 52.60837069 26.35093447 53.16796875 28.1328125 C52.83796875 28.7928125 52.50796875 29.4528125 52.16796875 30.1328125 C51.22759766 29.92277588 50.28722656 29.71273926 49.31835938 29.49633789 C38.71402551 27.25044446 28.48336551 26.65677279 17.66796875 26.5703125 C15.28973456 26.54630708 12.91184381 26.51799508 10.53381348 26.47853088 C9.0735682 26.45467137 7.61314324 26.43941195 6.15270996 26.43492126 C-1.39102933 26.31996959 -7.85221127 24.97361915 -13.83203125 20.1328125 C-16.05554255 17.42592918 -15.83203125 15.90078373 -15.83203125 12.3203125 C-15.08987305 7.54546338 -12.55681663 4.14229952 -8.83203125 1.1328125 C-5.84733223 0.17901881 -3.12199733 0.00420148 0 0 Z " fill="#CB7A29" transform="translate(235.83203125,308.8671875)"/>
<path d="M0 0 C14.19 0 28.38 0 43 0 C43 2.64 43 5.28 43 8 C31.78 8 20.56 8 9 8 C9 16.58 9 25.16 9 34 C19.23 34 29.46 34 40 34 C40 36.64 40 39.28 40 42 C29.77 42 19.54 42 9 42 C9 51.57 9 61.14 9 71 C20.22 71 31.44 71 43 71 C43 73.64 43 76.28 43 79 C28.81 79 14.62 79 0 79 C0 52.93 0 26.86 0 0 Z " fill="#000000" transform="translate(730,224)"/>
<path d="M0 0 C4.95 0 9.9 0 15 0 C15 25.74 15 51.48 15 78 C10.05 78 5.1 78 0 78 C0 52.26 0 26.52 0 0 Z " fill="#000000" transform="translate(576,339)"/>
<path d="M0 0 C18.15 0 36.3 0 55 0 C55 2.64 55 5.28 55 8 C47.41 8 39.82 8 32 8 C32 31.43 32 54.86 32 79 C29.03 79 26.06 79 23 79 C23 55.57 23 32.14 23 8 C15.41 8 7.82 8 0 8 C0 5.36 0 2.72 0 0 Z " fill="#000000" transform="translate(508,224)"/>
<path d="M0 0 C3.0625 1.3125 3.0625 1.3125 5 4 C5.69705941 7.79638141 5.69705941 11.20361859 5 15 C2.8374461 17.99967154 1.43983156 18.73442528 -2.16015625 19.3984375 C-6.32303601 19.69032556 -8.48438577 19.32620492 -12.0625 17.0625 C-14.669717 12.94141507 -15.03945854 9.75058323 -14 5 C-10.44686959 -0.61623839 -6.16062515 -1.13631784 0 0 Z M-11 5 C-11.56536134 8.09794937 -11.56536134 10.90205063 -11 14 C-8.82470111 16.76095629 -7.45440825 16.93373213 -4 17.4375 C-0.95327116 17.2093403 -0.95327116 17.2093403 1.375 15.4375 C3.62340519 12.06489221 3.56783945 9.97487617 3 6 C1.52006844 3.43661311 1.52006844 3.43661311 -1 2 C-5.2407782 1.38155318 -8.26135833 1.52403173 -11 5 Z " fill="#000000" transform="translate(933,225)"/>
<path d="M0 0 C1.32 0 2.64 0 4 0 C4.66 2.31 5.32 4.62 6 7 C6.66 7 7.32 7 8 7 C8.66 4.69 9.32 2.38 10 0 C10.99 0 11.98 0 13 0 C13 4.29 13 8.58 13 13 C12.34 13 11.68 13 11 13 C10.67 12.01 10.34 11.02 10 10 C9.01 11.485 9.01 11.485 8 13 C7.01 13 6.02 13 5 13 C4.67 12.01 4.34 11.02 4 10 C3.67 10.99 3.34 11.98 3 13 C2.01 13 1.02 13 0 13 C0 8.71 0 4.42 0 0 Z " fill="#000000" transform="translate(1007,339)"/>
<path d="M0 0 C2.33294775 -0.04241723 4.66702567 -0.04092937 7 0 C8.90324784 1.90324784 8 5.45022931 8 8 C8.33 8.99 8.66 9.98 9 11 C5.125 10.125 5.125 10.125 4 9 C3.67 9.66 3.34 10.32 3 11 C2.01 11 1.02 11 0 11 C0 7.37 0 3.74 0 0 Z M3 2 C3 2.99 3 3.98 3 5 C3.99 4.67 4.98 4.34 6 4 C5.67 3.34 5.34 2.68 5 2 C4.34 2 3.68 2 3 2 Z " fill="#000000" transform="translate(925,229)"/>
<path d="M0 0 C3.3 0 6.6 0 10 0 C10 0.99 10 1.98 10 3 C8.68 3 7.36 3 6 3 C6 6.3 6 9.6 6 13 C5.34 13 4.68 13 4 13 C4 9.7 4 6.4 4 3 C2.68 3 1.36 3 0 3 C0 2.01 0 1.02 0 0 Z " fill="#000000" transform="translate(996,339)"/>
<path d="M0 0 C-0.845625 0.42410156 -1.69125 0.84820312 -2.5625 1.28515625 C-9.43597808 4.83905685 -15.4710522 8.50445974 -21 14 C-21 11 -21 11 -19.56640625 9.3515625 C-6.14326981 -2.21379092 -6.14326981 -2.21379092 0 0 Z " fill="#F7B65A" transform="translate(222,263)"/>
</svg>
