<?xml version="1.0" encoding="UTF-8"?>
<svg version="1.1" xmlns="http://www.w3.org/2000/svg" width="2560" height="527">
<path d="M0 0 C1.00618881 -0.00705963 2.01237762 -0.01411926 3.04905701 -0.02139282 C43.19730562 -0.23915154 95.68820827 -0.26030012 127.18359375 29.203125 C136.5114943 38.76803209 141.0697538 49.67298748 140.90527344 62.99731445 C139.687185 85.37620268 126.22886531 108.55212639 113.18359375 126.203125 C112.41660156 127.25242187 111.64960938 128.30171875 110.859375 129.3828125 C105.88989022 136.06632081 100.53894446 142.29073896 94.83984375 148.359375 C92.3793553 150.99354499 89.99684615 153.68025959 87.62109375 156.390625 C83.12562955 161.38646772 78.26233449 165.8101214 73.18359375 170.203125 C72.12206213 171.13894453 71.06088125 172.075162 70 173.01171875 C46.13591911 193.93666997 19.27798225 210.80312772 -8.52783203 225.95458984 C-10.01022228 226.7633101 -11.49051321 227.57589529 -12.96826172 228.39306641 C-121.23856374 288.16185477 -121.23856374 288.16185477 -161.19140625 277.265625 C-162.05765625 276.915 -162.92390625 276.564375 -163.81640625 276.203125 C-165.08240392 262.16461755 -158.29591739 250.65304091 -152.02783203 238.54785156 C-150.71597039 236.00873041 -149.4206761 233.46147795 -148.125 230.9140625 C-141.35749781 217.69203934 -134.10149474 204.81147358 -126.50830078 192.04736328 C-124.9049404 189.35195947 -123.31105091 186.65116555 -121.71875 183.94921875 C-114.73755263 172.1527325 -107.37344119 160.63751601 -99.81640625 149.203125 C-99.1709082 148.2219873 -98.52541016 147.24084961 -97.86035156 146.22998047 C-90.62378647 135.23630185 -83.34113763 124.32131523 -75.4609375 113.77734375 C-72.47269101 109.77091324 -69.61791526 105.67378509 -66.75390625 101.578125 C-43.7749227 68.85596382 -43.7749227 68.85596382 -32.81640625 65.203125 C-31.1328185 65.0612343 -29.44319882 64.98297995 -27.75390625 64.953125 C-26.87605469 64.92734375 -25.99820313 64.9015625 -25.09375 64.875 C-24.34222656 64.98328125 -23.59070313 65.0915625 -22.81640625 65.203125 C-20.3330499 68.92815953 -20.54451957 70.78731031 -20.81640625 75.203125 C-24.53701025 92.93639341 -36.88274895 109.30705746 -45.99365234 124.69091797 C-72.92919954 165.81733227 -72.92919954 165.81733227 -84.81640625 212.203125 C-62.94678708 217.01444122 -35.55871798 199.13104818 -17.86254883 187.9465332 C-14.47789773 185.75005649 -11.13880071 183.49241953 -7.81640625 181.203125 C-7.21570313 180.79384766 -6.615 180.38457031 -5.99609375 179.96289062 C6.64975745 171.31413116 18.62421538 161.67155986 29.8984375 151.30078125 C31.45546232 149.87151232 33.03201796 148.46329909 34.625 147.07421875 C52.87495999 131.10907378 75.64690375 106.61322981 77.5234375 81.171875 C77.99282948 71.47217915 77.01833372 64.34608872 70.85546875 56.515625 C50.14005575 35.58215502 5.76018513 37.25007197 -21.25390625 36.640625 C-22.15927124 36.6184491 -23.06463623 36.59627319 -23.99743652 36.57342529 C-34.17478231 36.32523535 -44.34299638 36.1656345 -54.5234375 36.24609375 C-55.37638901 36.2517485 -56.22934052 36.25740326 -57.10813904 36.26322937 C-61.14109073 36.29222355 -65.17251695 36.33867904 -69.20483398 36.41577148 C-91.74072363 36.72144466 -91.74072363 36.72144466 -99.69140625 30.828125 C-101.81640625 28.203125 -101.81640625 28.203125 -102.16210938 25.73217773 C-101.81640625 23.203125 -101.81640625 23.203125 -100.40039062 21.52758789 C-95.26719545 17.87982052 -90.31645031 15.52127009 -84.31640625 13.640625 C-82.95334351 13.20302856 -82.95334351 13.20302856 -81.56274414 12.7565918 C-55.67687974 4.72745565 -27.11319219 0.12681989 0 0 Z " fill="#EE2621" transform="translate(163.81640625,248.796875)"/>
<path d="M0 0 C1.05143188 0.00432037 2.10286377 0.00864075 3.18615723 0.01309204 C19.09593079 0.08960746 34.5967592 0.73716324 50.3125 3.375 C51.47104492 3.55724121 52.62958984 3.73948242 53.82324219 3.92724609 C95.85842601 10.56700791 95.85842601 10.56700791 103.3125 20.375 C104.25 22.75 104.25 22.75 104.3125 25.375 C103.125 28 103.125 28 100.3125 30.375 C88.21125079 34.91531366 74.62115517 34.51618448 61.87890625 34.83984375 C60.51145583 34.87797586 59.14401926 34.91660729 57.77659607 34.95570374 C52.04501311 35.11893658 46.31326579 35.27541734 40.58129883 35.42456055 C-1.99087994 34.05233675 -1.99087994 34.05233675 -39.25 49.9375 C-42.35953337 55.21018701 -42.33943571 60.34370658 -41.07421875 66.2265625 C-34.74191124 89.15676855 -17.13026415 107.01891237 -1.4375 124.125 C2.48928785 128.41106058 6.18187399 132.83705627 9.83203125 137.359375 C12.76219219 140.9217124 15.78037135 144.39948581 18.8125 147.875 C24.10106341 153.9472793 29.26195232 160.10240779 34.3125 166.375 C35.27966713 167.56012503 36.24713341 168.74500598 37.21484375 169.9296875 C54.78610259 191.53460887 71.6534331 214.25065361 69.3125 243.375 C66.89820244 255.44648781 59.17557624 266.23378159 49.3125 273.375 C20.42044632 292.30671244 -14.8568434 293.97047809 -48.375 293.8125 C-49.73954207 293.80949033 -51.10408477 293.80675689 -52.46862793 293.80429077 C-76.69395241 293.74348357 -100.64656937 292.43517052 -124.6875 289.375 C-125.50516846 289.27127075 -126.32283691 289.1675415 -127.1652832 289.06066895 C-170.02293362 283.56777702 -170.02293362 283.56777702 -178.6875 276.375 C-180.13180855 273.48638291 -180.06438506 271.57852299 -179.6875 268.375 C-177.14196525 264.64154903 -174.804914 263.16579664 -170.48486328 262.29907227 C-163.31776091 260.99100765 -156.06668032 260.70480716 -148.8046875 260.33984375 C-147.25737765 260.25699949 -145.71008589 260.17381668 -144.16281128 260.09031677 C-125.88031172 259.12150247 -107.58294383 258.43498172 -89.28710938 257.77319336 C-41.99031624 259.02285201 -41.99031624 259.02285201 -0.015625 243.89453125 C3.8490272 239.49794659 4.67707224 235.59827172 4.5859375 229.95703125 C2.19467042 207.37663783 -19.5434469 187.30110361 -33.6484375 170.9140625 C-36.97042163 167.05212412 -40.25897172 163.16247778 -43.54248047 159.26782227 C-45.89758249 156.47804245 -48.26526987 153.70052883 -50.65625 150.94140625 C-56.18836201 144.55201781 -61.57322296 138.08848063 -66.75390625 131.40991211 C-69.49543708 127.87652655 -72.30727871 124.42250097 -75.1875 121 C-90.3204246 102.56436198 -107.93223485 77.99434587 -106.625 53.125 C-105.45909461 43.79775691 -101.80866972 36.42361968 -95.6875 29.375 C-95.12417969 28.71757812 -94.56085938 28.06015625 -93.98046875 27.3828125 C-71.06262995 2.58329851 -31.48030749 -0.24647683 0 0 Z " fill="#EE2621" transform="translate(437.6875,175.625)"/>
<path d="M0 0 C16.10019405 -0.07046404 32.20033714 -0.12316953 48.30064869 -0.15543652 C55.77836614 -0.17082502 63.25598711 -0.19175859 70.73364258 -0.22631836 C77.26048455 -0.25646902 83.78725656 -0.27563303 90.31416625 -0.28226548 C93.76167998 -0.28613491 97.20899379 -0.29505503 100.65644264 -0.31719017 C129.3286543 -0.48070853 156.6612549 0.97857629 178.6796875 21.58203125 C182.34363408 25.40018434 185.26020978 29.48285868 188 34 C188.46148438 34.75667969 188.92296875 35.51335937 189.3984375 36.29296875 C194.73195759 45.94179146 197.57424332 58.01902552 198 69 C198.0515625 70.09699219 198.103125 71.19398438 198.15625 72.32421875 C199.06497975 109.77145709 186.89221986 150.17803877 161.2734375 178 C148.80294308 190.92716041 133.34104055 200.09424019 116.1875 205.375 C115.10782959 205.71446655 115.10782959 205.71446655 114.00634766 206.06079102 C96.66218889 211.01546757 78.97604961 211.4219252 61.078125 211.29296875 C58.75258664 211.2873568 56.42704468 211.28309429 54.10150146 211.28010559 C48.05179636 211.26878256 42.00231566 211.23942694 35.95269775 211.20599365 C29.75104811 211.17501863 23.54936135 211.16154229 17.34765625 211.14648438 C5.23167354 211.1145423 -6.8841444 211.0635024 -19 211 C-18.41306458 202.80590949 -17.20559847 194.82255692 -15.73095703 186.74511719 C-15.50154419 185.46728363 -15.27213135 184.18945007 -15.0357666 182.87289429 C-14.41215934 179.40126698 -13.78245545 175.93077351 -13.15110254 172.46054745 C-12.62262581 169.55314979 -12.09693094 166.64525166 -11.57113159 163.73736882 C-10.33045815 156.8768154 -9.08452506 150.01723129 -7.83544922 143.15820312 C-6.54990371 136.09828519 -5.27415212 129.03664559 -4.0030185 121.9741199 C-2.90748757 115.88951525 -1.80547469 109.80610817 -0.69838607 103.72359586 C-0.03887964 100.09965781 0.61811097 96.47530975 1.26867294 92.84975433 C1.99376669 88.8105212 2.73234447 84.7738659 3.47216797 80.73730469 C3.68422882 79.54545563 3.89628967 78.35360657 4.11477661 77.12564087 C6.54925701 63.98594089 6.54925701 63.98594089 10.57519531 59.08081055 C14.54342051 57.31204968 18.50694631 57.63482485 22.796875 57.70703125 C23.74564514 57.71127609 24.69441528 57.71552094 25.67193604 57.71989441 C28.69824766 57.73666918 31.7238901 57.77431944 34.75 57.8125 C36.80337579 57.82754838 38.85676203 57.84123652 40.91015625 57.85351562 C45.94036148 57.88656883 50.97006733 57.93834317 56 58 C55.33801474 64.60061553 54.35134237 71.07305704 53.15820312 77.59692383 C52.97434555 78.61593781 52.79048798 79.63495178 52.60105896 80.68484497 C51.99741183 84.02611638 51.38941787 87.36657999 50.78125 90.70703125 C50.35886257 93.03867033 49.93670625 95.37035128 49.51477051 97.70207214 C48.63232642 102.57507963 47.74786453 107.44771492 46.86181641 112.32006836 C45.72558727 118.56846158 44.59321724 124.81754621 43.46219635 131.06688404 C42.59171298 135.87540108 41.71980352 140.68365858 40.84739685 145.49182701 C40.42925481 147.79669434 40.01141689 150.10161687 39.59388733 152.40659523 C39.01121769 155.62132874 38.42677544 158.83573478 37.84179688 162.05004883 C37.58305031 163.48000938 37.58305031 163.48000938 37.31907654 164.93885803 C37.15927811 165.81483643 36.99947968 166.69081482 36.83483887 167.59333801 C36.69694695 168.35226758 36.55905502 169.11119715 36.41698456 169.89312458 C36.01002807 171.94933173 35.52674144 173.97149647 35 176 C42.16797473 175.95802744 49.33519196 175.88540928 56.50268555 175.79248047 C58.93588408 175.76442928 61.36917105 175.74313678 63.80249023 175.72900391 C81.06917295 175.6227474 95.45053869 175.32785596 110 165 C110.67417969 164.52175781 111.34835937 164.04351562 112.04296875 163.55078125 C132.38350339 147.43263304 140.31272989 118.12242726 143.53125 93.56640625 C145.37866963 77.11107573 144.42305242 60.81644781 134.8125 46.8125 C124.00537614 36.00537614 109.42947748 35.62372391 95.0308075 35.58459473 C94.02443426 35.58615067 93.01806103 35.5877066 91.98119164 35.58930969 C88.79824023 35.5938313 85.61583203 35.57966857 82.43293762 35.56091309 C74.53755339 35.51814307 66.6421839 35.50687476 58.7467041 35.49468994 C52.05052814 35.4831485 45.35460384 35.45957115 38.6585331 35.41999817 C35.53039982 35.406466 32.40261069 35.41058982 29.27445984 35.41540527 C27.35248376 35.40606397 25.43051147 35.39589497 23.50854492 35.38476562 C22.64554276 35.39091385 21.78254059 35.39706207 20.89338684 35.40339661 C14.28596357 35.3363569 9.92079931 33.79230867 4.25 30.3125 C-0.61257043 25.31485816 -1.18068736 20.13772199 -1.25 13.4375 C-1.18301447 8.87690207 -0.66641629 4.50899401 0 0 Z " fill="#EE2621" transform="translate(1347,253)"/>
<path d="M0 0 C15.65676457 13.67906799 23.48399939 32.89880101 25.6875 53.25 C27.58337119 95.47588392 16.98379283 134.04680405 -11.609375 165.80078125 C-31.49236891 186.69092027 -60.81750715 199.26198526 -89.56323242 200.37597656 C-118.57818623 200.98442605 -147.75343319 199.58263074 -170.10327148 178.48291016 C-186.76142177 162.21597608 -193.43948101 141.12746263 -194.3125 118.25 C-194.44626307 105.40635684 -193.16874717 92.76751047 -190.3125 80.25 C-190.14766113 79.52748047 -189.98282227 78.80496094 -189.81298828 78.06054688 C-182.25075735 46.07671725 -164.15315197 16.32339555 -136.16308594 -1.609375 C-97.25070744 -25.59336344 -37.06675838 -29.30967987 0 0 Z M-123.921875 38.14453125 C-142.69334242 62.17578904 -149.56094218 97.67173057 -146.02832031 127.66259766 C-144.16826752 138.58105766 -139.05971728 148.03673333 -130.31640625 154.94140625 C-115.67949442 164.49962353 -96.57101566 165.49229393 -79.68359375 162.5625 C-66.29095211 159.7202559 -55.88930581 153.92708649 -46.3125 144.25 C-45.68730469 143.65832031 -45.06210937 143.06664062 -44.41796875 142.45703125 C-25.68745204 123.30370378 -20.86504851 88.78216343 -21.09765625 63.1953125 C-21.87032562 49.0062932 -25.33717392 37.03737256 -35.87890625 27.22265625 C-60.47210007 7.28756334 -103.99842177 16.04381442 -123.921875 38.14453125 Z " fill="#EE2621" transform="translate(1012.3125,272.75)"/>
<path d="M0 0 C1.11322128 -0.00029205 2.22644257 -0.00058411 3.37339783 -0.00088501 C7.02562457 0.00050002 10.6776432 0.01602232 14.32983398 0.03173828 C16.87287789 0.03547135 19.41592325 0.03831693 21.95896912 0.04031372 C27.95109225 0.04715033 33.94312708 0.06288737 39.93521494 0.0830127 C46.76236917 0.10544039 53.58952711 0.11638233 60.41670907 0.12640357 C74.44898933 0.1472558 88.48120448 0.18238866 102.51342773 0.22705078 C102.63094212 4.35180559 102.70111597 8.47612196 102.76342773 12.60205078 C102.79694336 13.75833984 102.83045898 14.91462891 102.86499023 16.10595703 C102.96558024 25.00817272 101.37445301 31.59021671 96.70092773 39.16455078 C91.31481581 44.24288488 85.47115233 44.66702154 78.42871094 44.62768555 C77.546539 44.63466461 76.66436707 44.64164368 75.75546265 44.64883423 C72.85827937 44.66872595 69.96145428 44.66831046 67.06420898 44.66845703 C65.04354395 44.6802344 63.0228876 44.6935995 61.00224304 44.70848083 C55.69543109 44.74460235 50.38869618 44.76485186 45.08178711 44.7800293 C36.57739167 44.80489968 28.07316635 44.84447113 19.56892967 44.90192986 C16.59973039 44.91826165 13.63069191 44.92203624 10.66145325 44.92494202 C8.8442863 44.93471659 7.02712189 44.94497958 5.20996094 44.95581055 C4.38442215 44.9532576 3.55888336 44.95070465 2.70832825 44.94807434 C-2.73857947 44.91054058 -2.73857947 44.91054058 -7.48657227 47.22705078 C-9.00639197 50.43796062 -9.00639197 50.43796062 -8.48657227 54.22705078 C-3.93877168 60.56963555 4.699551 64.87227798 11.11108398 69.21142578 C15.58275758 72.25164583 19.95723125 75.41634377 24.32592773 78.60205078 C30.52193802 83.11378027 36.79185701 87.49246053 43.13842773 91.78955078 C83.45999208 119.16034041 83.45999208 119.16034041 88.12744141 139.01855469 C91.1164262 156.12061442 87.36947782 172.53014276 78.51342773 187.22705078 C68.7687627 200.70410638 54.32235819 207.66944226 38.27768326 210.80320358 C33.78997426 211.49131033 29.36300969 211.48889565 24.83129883 211.45410156 C23.81546722 211.45439362 22.79963562 211.45468567 21.75302124 211.45498657 C18.43087909 211.45360507 15.10896769 211.43809981 11.78686523 211.42236328 C9.46945315 211.41862896 7.15203948 211.41578397 4.83462524 211.41378784 C-1.23818388 211.40618445 -7.31089597 211.38656443 -13.38366699 211.36437988 C-19.59113249 211.34385026 -25.79861379 211.33477095 -32.00610352 211.32470703 C-44.16630219 211.30331528 -56.32642913 211.26921938 -68.48657227 211.22705078 C-68.58618955 206.81630374 -68.65838896 202.40616983 -68.70629883 197.99462891 C-68.72629145 196.49711688 -68.75349525 194.9996817 -68.78833008 193.50244141 C-69.14804618 177.63261357 -69.14804618 177.63261357 -64.48657227 171.22705078 C-60.23043543 167.85734776 -56.20673241 167.79618264 -50.98364258 167.82641602 C-50.13905487 167.81943695 -49.29446716 167.81245789 -48.42428589 167.80526733 C-45.63765445 167.7853057 -42.85139383 167.78579078 -40.06469727 167.78564453 C-38.12041226 167.77386733 -36.17613628 167.76050227 -34.23187256 167.74562073 C-29.11271866 167.70943149 -23.99364469 167.68923747 -18.87438965 167.67407227 C-10.69541008 167.64925373 -2.51660741 167.60934893 5.66220856 167.55217171 C8.50985412 167.53593223 11.35733108 167.53207252 14.20501709 167.52915955 C15.96765424 167.51937407 17.73028881 167.50910931 19.49291992 167.49829102 C20.2755722 167.50084396 21.05822449 167.50339691 21.86459351 167.50602722 C28.09153233 167.44900197 34.68927272 167.06275154 40.01342773 163.60205078 C42.14061653 160.23400185 43.07099054 157.15918944 42.51342773 153.22705078 C39.34699084 148.05146067 34.58489414 144.5342594 29.57592773 141.28955078 C28.15460618 140.34014976 26.73408165 139.38955483 25.31420898 138.43798828 C24.5467334 137.92719727 23.77925781 137.41640625 22.98852539 136.89013672 C18.37368923 133.78930184 13.82282181 130.5960809 9.26342773 127.41455078 C7.79993896 126.39542603 7.79993896 126.39542603 6.30688477 125.35571289 C-3.30312176 118.66356738 -12.90820605 111.96442951 -22.48657227 105.22705078 C-23.53772217 104.48769287 -23.53772217 104.48769287 -24.61010742 103.73339844 C-26.52971318 102.38053784 -28.44633392 101.02358505 -30.36157227 99.66455078 C-31.41086914 98.92076172 -32.46016602 98.17697266 -33.54125977 97.41064453 C-44.53463315 89.26038495 -51.61223437 79.28501312 -55.09985352 65.86767578 C-57.50499797 49.44466923 -54.33757815 33.76530468 -44.48657227 20.22705078 C-32.32561615 5.55607333 -18.5843415 -0.12928427 0 0 Z " fill="#EE2621" transform="translate(702.486572265625,252.77294921875)"/>
<path d="M0 0 C1.14469757 0.00054382 2.28939514 0.00108765 3.46878052 0.00164795 C20.41656844 0.03865088 36.86287655 0.48865896 53.4375 4.375 C54.37916016 4.58930664 55.32082031 4.80361328 56.29101562 5.02441406 C74.47981224 9.30669757 94.24789254 16.46317288 105.4375 32.375 C112.41559018 44.0051503 113.3739722 57.65595756 110.6328125 70.796875 C105.15151375 92.69428462 91.03734838 110.72834215 76.4375 127.375 C75.64085937 128.29539062 74.84421875 129.21578125 74.0234375 130.1640625 C70.05331099 134.67991086 65.98789875 138.79858137 61.390625 142.671875 C59.35957045 144.44295457 57.49943232 146.31461054 55.625 148.25 C51.38860534 152.52720771 46.84223643 156.30531659 42.12207031 160.03662109 C40.29708314 161.48656017 38.48911259 162.95647708 36.6796875 164.42578125 C19.12167792 178.52655836 0.06218443 191.32174146 -19.5625 202.375 C-20.37460937 202.83567871 -21.18671875 203.29635742 -22.0234375 203.77099609 C-67.4252761 229.40822995 -67.4252761 229.40822995 -84.5625 227.375 C-86.0475 226.385 -86.0475 226.385 -87.5625 225.375 C-88.16210861 222.04384107 -88.1772134 219.6044268 -86.63671875 216.5234375 C-77.86529126 203.94847065 -64.0396687 195.05050399 -51.88623047 186.09521484 C-46.71682603 182.2684 -41.64096292 178.3213215 -36.5625 174.375 C-36.00933105 173.94799805 -35.45616211 173.52099609 -34.88623047 173.08105469 C-22.56354196 163.56575987 -10.76348709 153.53112414 0.6484375 142.94140625 C3.16727775 140.62364989 5.73205314 138.37343496 8.3125 136.125 C25.59929107 120.52539974 50.65459446 95.66650968 52.70703125 71.15625 C52.91714891 64.24571361 52.70654205 59.40254527 48.2421875 53.90234375 C29.37120474 34.58675669 -15.46812986 34.68468359 -40.4375 33.8125 C-41.63987305 33.76786621 -42.84224609 33.72323242 -44.08105469 33.67724609 C-51.75200124 33.41995845 -59.39849185 33.37489166 -67.07275391 33.46020508 C-97.85491393 33.78776038 -97.85491393 33.78776038 -105.5625 26.375 C-106.375 23.625 -106.375 23.625 -106.5625 21.375 C-94.37394936 9.52502021 -73.7589349 6.93256409 -57.625 4.1875 C-56.72233398 4.03273193 -55.81966797 3.87796387 -54.88964844 3.71850586 C-36.62424409 0.78128318 -18.47928757 -0.0331251 0 0 Z " fill="#EE2621" transform="translate(287.5625,-0.375)"/>
<path d="M0 0 C18 0 18 0 23 4 C24.47269795 6.9453959 24.1226208 9.55708554 24.12025452 12.84622192 C24.12110894 13.55846888 24.12196337 14.27071584 24.12284368 15.00454605 C24.12449728 17.40295823 24.11897907 19.80130124 24.11352539 22.19970703 C24.11324347 23.91426593 24.11340135 25.62882496 24.1139679 27.34338379 C24.11425567 32.00841634 24.10836218 36.67342336 24.10139394 41.33844995 C24.09515706 46.20983407 24.09455634 51.08121871 24.09336853 55.9526062 C24.0902562 65.18194634 24.08204414 74.41127468 24.07201904 83.64060962 C24.06085485 94.14589588 24.05534668 104.65118269 24.05032361 115.1564734 C24.03986145 136.77098886 24.02226391 158.38549369 24 180 C24.44541138 179.21987549 24.89082275 178.43975098 25.34973145 177.63598633 C27.04090787 174.67426643 28.73234694 171.71269683 30.4239502 168.7512207 C31.14882365 167.48207284 31.87359959 166.21286927 32.5982666 164.94360352 C37.54316949 156.28272883 42.50910955 147.63448202 47.5 139 C53.05206666 129.39128185 58.566249 119.76158533 64.06253052 110.12091064 C69.56481721 100.47337546 75.13345622 90.86705692 80.74829102 81.28466797 C81.29412842 80.35283691 81.83996582 79.42100586 82.40234375 78.4609375 C82.88179443 77.64415527 83.36124512 76.82737305 83.85522461 75.98583984 C84.60873641 74.67872426 85.3252658 73.3494684 86 72 C89.3956697 71.91254054 92.79104773 71.85945556 96.1875 71.8125 C97.14720703 71.78736328 98.10691406 71.76222656 99.09570312 71.73632812 C106.11955406 71.66341618 109.26983245 72.60699169 114.59375 77.2734375 C118.60987338 82.42496025 119.24042986 89.37194898 120.5 95.625 C120.82114584 97.15344932 121.14412831 98.68151365 121.46875 100.20922852 C122.01284268 102.7753248 122.55444763 105.34183781 123.08935547 107.90986633 C124.66085462 115.45357407 126.30023575 122.98169076 127.95661926 130.50713348 C128.85710927 134.6000129 129.75396617 138.69369024 130.65126801 142.78726959 C131.39977507 146.20174541 132.14917743 149.61601836 132.90063477 153.02984619 C133.75252123 156.90265439 134.59534946 160.77740637 135.4375 164.65234375 C135.69648071 165.82485184 135.95546143 166.99735992 136.22229004 168.20539856 C136.45702026 169.29124741 136.69175049 170.37709625 136.93359375 171.49584961 C137.14040771 172.44205673 137.34722168 173.38826385 137.56030273 174.36314392 C137.99378013 176.96269957 138.08129843 179.37017822 138 182 C138.66 182 139.32 182 140 182 C140.17269409 181.45209808 140.34538818 180.90419617 140.52331543 180.33969116 C142.30941826 174.81182807 144.4050851 169.52440444 146.78125 164.2265625 C147.14677979 163.40243866 147.51230957 162.57831482 147.88891602 161.72921753 C149.08882771 159.0261125 150.29444246 156.32559114 151.5 153.625 C152.35265165 151.70657487 153.204857 149.78795132 154.05664062 147.86914062 C155.82509755 143.88627453 157.59546426 139.9042657 159.3671875 135.92285156 C163.03662822 127.67300388 166.68267777 119.41284395 170.32888794 111.15270996 C172.30026943 106.68729328 174.27321631 102.22256841 176.24609375 97.7578125 C176.63784286 96.8711792 177.02959198 95.9845459 177.43321228 95.07104492 C179.81713421 89.67585802 182.20211624 84.28114102 184.58790588 78.88677979 C186.1836233 75.27871715 187.77899795 71.67050301 189.3742981 68.06225586 C190.16199511 66.28078807 190.94981516 64.49937468 191.73776245 62.71801758 C196.22009934 52.58369293 200.68632906 42.44259543 205.125 32.2890625 C205.9615038 30.37711441 206.79801091 28.46516778 207.63452148 26.55322266 C209.22325385 22.92150653 210.80812335 19.28813706 212.39086914 15.65380859 C213.1055032 14.01914963 213.82025874 12.38454377 214.53515625 10.75 C215.01970276 9.63294174 215.01970276 9.63294174 215.51403809 8.49331665 C216.83841404 5.47225647 218.16490179 2.75264731 220 0 C222.54612236 -0.36157951 224.76569448 -0.50971137 227.3125 -0.5 C228.62863281 -0.5309375 229.94476562 -0.561875 231.30078125 -0.59375 C235 0 235 0 237.98046875 2.03125 C240.51463977 5.75653041 240.54315728 8.66501812 240 13 C239.1637104 15.83251545 237.96833548 18.42911258 236.6953125 21.08984375 C236.34499969 21.85426285 235.99468689 22.61868195 235.63375854 23.40626526 C234.8750475 25.05757326 234.10952009 26.70576314 233.33789062 28.35107422 C231.67292127 31.90153423 230.04101942 35.46688799 228.40667725 39.03152466 C227.551812 40.89516039 226.69522167 42.7580057 225.8369751 44.62008667 C221.81648488 53.35252936 217.9472043 62.14763947 214.10687256 70.96047974 C207.4726467 86.18151929 200.71967191 101.34546379 193.88104248 116.47564697 C188.43506865 128.5287482 183.07649402 140.6172242 177.77920532 152.73638916 C174.85913198 159.41192343 171.92377342 166.08074946 168.98883057 172.74975586 C168.04377612 174.90038036 167.10226463 177.05252147 166.16162109 179.20507812 C164.56508168 182.85399888 162.94119203 186.49030668 161.3125 190.125 C160.86793457 191.14899902 160.42336914 192.17299805 159.96533203 193.22802734 C156.57549024 200.69954157 153.00957474 206.10231335 145.45825195 209.67626953 C140.34311616 211.48647519 135.36615155 211.33183097 130 211.1875 C129.03449219 211.17396484 128.06898438 211.16042969 127.07421875 211.14648438 C124.71554575 211.11145458 122.35808229 211.06234084 120 211 C114.25633741 183.50726444 108.54795928 156.00740124 102.875 128.5 C102.65466284 127.43161959 102.65466284 127.43161959 102.42987442 126.34165573 C100.61912813 117.56126625 98.80917315 108.78071377 97 100 C94.68479401 103.03117451 92.75927559 106.0733577 90.91796875 109.41796875 C90.02537354 111.03300293 90.02537354 111.03300293 89.11474609 112.68066406 C88.80108093 113.25143677 88.48741577 113.82220947 88.16424561 114.41027832 C86.82989941 116.83816638 85.48881183 119.26230846 84.14819336 121.68673706 C83.45498156 122.94055672 82.76211361 124.19456656 82.06958008 125.44876099 C78.69364674 131.56164567 75.28887891 137.65822879 71.875 143.75 C71.30112549 144.77407959 70.72725098 145.79815918 70.13598633 146.85327148 C65.16759782 155.71222026 60.18619614 164.56370964 55.16796875 173.39453125 C53.01472037 177.18809704 50.89714643 180.99894549 48.80078125 184.82421875 C48.27758301 185.76749023 47.75438477 186.71076172 47.21533203 187.68261719 C46.23545864 189.44945825 45.26545542 191.22183063 44.30810547 193.00097656 C39.05848986 202.39859962 34.23456103 207.16203961 24 211 C16.08 211 8.16 211 0 211 C0 141.37 0 71.74 0 0 Z " fill="#EE2621" transform="translate(1581,254)"/>
<path d="M0 0 C10.25020599 -0.04578783 20.50035953 -0.08205803 30.75064659 -0.10362434 C35.51218852 -0.11398416 40.27365673 -0.12799749 45.03515625 -0.15087891 C49.64526704 -0.17288976 54.25530772 -0.18462697 58.86546707 -0.18975449 C60.60898566 -0.19340031 62.35250118 -0.20051644 64.09598923 -0.21146011 C78.63015481 -0.29891506 93.95275753 -0.23354203 107.9375 4.1875 C108.63222412 4.40180664 109.32694824 4.61611328 110.04272461 4.83691406 C121.03970963 8.44265014 130.95470703 15.10932679 136.34375 25.62109375 C142.0189484 39.26183848 142.16100853 56.76062147 137.37890625 70.70703125 C129.08345217 90.51742159 116.55746993 104.88921066 96.4765625 113.68359375 C88.22144136 116.80940928 79.75905309 118.86871565 71 120 C72.41174711 123.76723044 74.13541188 127.17394666 76.1328125 130.6640625 C76.76614502 131.77273682 77.39947754 132.88141113 78.05200195 134.02368164 C78.742794 135.2242404 79.43379892 136.42467669 80.125 137.625 C80.84143451 138.87424204 81.55782376 140.12351004 82.27416992 141.37280273 C87.21748063 149.97745932 92.24538083 158.5303026 97.3125 167.0625 C97.97266113 168.1774585 98.63282227 169.29241699 99.31298828 170.44116211 C102.32643786 175.52537121 105.3580597 180.59543459 108.44921875 185.6328125 C109.46623933 187.3176519 110.48317268 189.00254396 111.5 190.6875 C111.96317627 191.42299072 112.42635254 192.15848145 112.90356445 192.91625977 C115.8518863 197.84813395 116.8199037 201.24258799 116 207 C113.86628404 210.40286129 112.18436476 210.9412399 108.34765625 212.1640625 C103.67280648 212.8622757 99.36222506 213.00953102 95 211 C89.73955247 205.92425325 86.81875575 198.76317694 83.65087891 192.28515625 C80.87169966 186.75474574 77.69516221 181.46035922 74.5625 176.125 C73.29752956 173.93211306 72.03451123 171.7380989 70.7734375 169.54296875 C67.09807962 163.16279794 63.398363 156.79707541 59.6875 150.4375 C59.16164307 149.53596191 58.63578613 148.63442383 58.09399414 147.70556641 C53.08308151 139.1249294 48.03813838 130.56483525 43 122 C29.47 122 15.94 122 2 122 C-3.28 151.37 -8.56 180.74 -14 211 C-22.25 211 -30.5 211 -39 211 C-35.31833397 189.31338406 -31.38411379 167.68598499 -27.33202314 146.06625152 C-26.4844841 141.54178469 -25.63931278 137.01687553 -24.79385376 132.49201965 C-23.19841959 123.9552438 -21.60093643 115.41885279 -20.00266993 106.8826068 C-18.19166043 97.20953492 -16.38303325 87.53601807 -14.57457423 77.86246908 C-11.75352949 62.77285904 -8.93120507 47.68348886 -6.10693359 32.59448242 C-5.90003812 31.48906538 -5.90003812 31.48906538 -5.68896294 30.36131668 C-3.79464538 20.24050187 -1.89807365 10.12011104 0 0 Z M31.8828125 23.5078125 C30.01798218 23.57850952 30.01798218 23.57850952 28.11547852 23.65063477 C25.07694178 23.76598527 22.03845289 23.88246518 19 24 C17.60002278 31.50261144 16.20032127 39.00527428 14.80095863 46.50800037 C14.15096645 49.99290706 13.50088413 53.47779688 12.85058594 56.96264648 C12.10063257 60.98155608 11.35108903 65.00054202 10.6015625 69.01953125 C10.3712735 70.25331009 10.1409845 71.48708893 9.90371704 72.758255 C9.46949723 75.08721151 9.03677231 77.41644738 8.60577393 79.7460022 C8.20884291 81.87817163 7.8050773 84.00908262 7.39373779 86.13851929 C7.21014709 87.10303009 7.0265564 88.06754089 6.83740234 89.0612793 C6.67525238 89.8980571 6.51310242 90.7348349 6.34603882 91.5969696 C5.98601913 94.09708866 5.93975588 96.47763299 6 99 C57.35718943 102.83786426 57.35718943 102.83786426 102.57226562 82.37792969 C110.87934246 74.3606346 116.95080936 63.06331872 117.3125 51.375 C117.1904594 43.8417666 114.96790924 37.48469753 109.5625 32.125 C100.39827805 24.83488723 87.59156872 23.94030934 76.3125 23.4375 C75.38260254 23.3957666 74.45270508 23.3540332 73.49462891 23.31103516 C59.59368204 22.73232114 45.78324051 22.96971343 31.8828125 23.5078125 Z " fill="#EE2621" transform="translate(2071,254)"/>
<path d="M0 0 C1.09441406 0.81597656 1.09441406 0.81597656 2.2109375 1.6484375 C20.57902538 16.53167076 27.23701269 39.08959129 29.76123047 61.59130859 C33.17743413 96.05374758 19.90974417 133.96211825 -1 161 C-4.49888942 165.16067146 -8.23033635 169.08579404 -12 173 C-12.59296875 173.65613281 -13.1859375 174.31226563 -13.796875 174.98828125 C-30.53522671 193.01101143 -57.3630036 202.94764167 -81.48974609 204.12109375 C-106.61045599 205.02650769 -129.8497601 200.17209824 -149.4375 183.39453125 C-165.60850187 168.28351883 -173.41926265 145.71325293 -174.22265625 123.95703125 C-175.13485417 84.01554023 -160.62735921 45.02446702 -133.57006836 15.50830078 C-99.90344912 -19.55177587 -40.10704148 -29.93580329 0 0 Z M-123 38 C-134.76611184 52.94940922 -141.78647672 69.81447457 -147 88 C-147.1949707 88.6796582 -147.38994141 89.35931641 -147.59082031 90.05957031 C-152.96870188 109.91557283 -152.68791362 134.23854908 -142.6875 152.4375 C-134.80146876 164.9014392 -124.81535104 172.74708797 -111 178 C-110.15695312 178.32097656 -109.31390625 178.64195312 -108.4453125 178.97265625 C-89.74723476 184.79886888 -67.79595523 181.72345665 -50.5 173.125 C-47.97314942 171.79520595 -45.4827802 170.40997394 -43 169 C-42.17242188 168.55140625 -41.34484375 168.1028125 -40.4921875 167.640625 C-17.85014371 154.10552871 -4.54294234 127.91596156 1.96875 103.26171875 C7.71440158 80.08227068 9.46487233 55.42474474 -2.2421875 33.74609375 C-10.97039532 20.11069354 -23.56006497 11.37998243 -39.0625 7.1875 C-70.61986376 0.63644584 -102.16419619 14.30294144 -123 38 Z " fill="#EE2621" transform="translate(1990,270)"/>
<path d="M0 0 C6.0505426 -0.12361242 12.10035017 -0.2143458 18.15185547 -0.2746582 C20.21025393 -0.29980019 22.26856314 -0.33391876 24.32666016 -0.37719727 C27.28570569 -0.4378627 30.24357103 -0.46621261 33.203125 -0.48828125 C34.12305237 -0.51408768 35.04297974 -0.5398941 35.99078369 -0.56648254 C40.12039295 -0.56829475 42.2854022 -0.52577335 45.67480469 1.96801758 C49.07779695 9.75389835 44.74873183 21.35056264 43.24023438 29.56982422 C42.95573917 31.1327195 42.67151078 32.69566336 42.38752747 34.25865173 C41.61974373 38.4797854 40.84808987 42.70020292 40.07559395 46.92047644 C39.26664391 51.34295625 38.46088333 55.76601726 37.65466309 60.18899536 C36.30172526 67.60848977 34.94630337 75.02752707 33.58935547 82.44628906 C32.02008198 91.02603885 30.45458001 99.60647023 28.89111662 108.18728054 C27.38586725 116.44818715 25.87814053 124.70863967 24.36921692 132.96887589 C23.72731088 136.48302348 23.08624567 139.99732294 22.44584656 143.51174545 C21.69273188 147.64402988 20.93744317 151.77591111 20.18045616 155.90748787 C19.9027527 157.42512498 19.62579666 158.94289907 19.34963417 160.46081734 C18.97327223 162.52876928 18.5942269 164.59621154 18.21447754 166.6635437 C17.8970245 168.4006426 17.8970245 168.4006426 17.57315826 170.1728344 C17 173 17 173 16 176 C17.15400803 175.99333817 18.30801605 175.98667633 19.49699402 175.97981262 C30.37063769 175.91900643 41.24424687 175.87402967 52.11802197 175.84456348 C57.70839205 175.82890538 63.29862491 175.80766424 68.88891602 175.77368164 C74.28352012 175.74109369 79.67799221 175.72314807 85.07268715 175.71536827 C87.13118887 175.70982378 89.18968334 175.6989968 91.24812889 175.68280983 C94.13066619 175.66104327 97.01265745 175.65803278 99.89526367 175.65942383 C100.74690598 175.648638 101.59854828 175.63785217 102.47599792 175.6267395 C107.13710927 175.65109045 110.21932071 175.95848094 114 179 C118.09607355 187.19214709 112.27424819 204.62875905 111 211 C61.83 211 12.66 211 -38 211 C-37.36659532 204.66595319 -36.67606942 198.56975677 -35.51977539 192.3454895 C-35.37261865 191.5353077 -35.2254619 190.7251259 -35.07384586 189.89039314 C-34.58556974 187.2076349 -34.09163126 184.52595254 -33.59765625 181.84423828 C-33.24411603 179.90845337 -32.89092509 177.97260464 -32.53805542 176.03669739 C-31.58303395 170.80304716 -30.62305522 165.57031743 -29.6620903 160.33775568 C-28.65619912 154.85619225 -27.65466236 149.37383323 -26.65258789 143.89157104 C-24.97061461 134.69317257 -23.2856433 125.49532747 -21.59863281 116.29785156 C-19.43253617 104.48834154 -17.27137369 92.67793419 -15.11177063 80.86723518 C-13.25442066 70.70973928 -11.39484453 60.55265112 -9.53489304 50.39563131 C-8.93712199 47.13074791 -8.3396514 43.86580962 -7.74221802 40.60086441 C-6.80451926 35.47720055 -5.86543458 30.35379255 -4.92526627 25.23058128 C-4.58015026 23.34886813 -4.235473 21.46707446 -3.89126205 19.58519554 C-3.42212253 17.02077688 -2.95138671 14.45665635 -2.48022461 11.89260864 C-2.34374543 11.14456439 -2.20726625 10.39652014 -2.06665134 9.62580788 C-1.47040305 6.38992332 -0.85936003 3.17755251 0 0 Z " fill="#EE2621" transform="translate(1088,253)"/>
<path d="M0 0 C5.83552248 0.02971244 9.10738063 0.2275269 13.3125 4.3125 C15.86882608 9.42515216 14.07346716 16.63252437 13.10327148 21.99780273 C12.97486877 22.71912888 12.84646606 23.44045502 12.71417236 24.18363953 C12.43731349 25.73373552 12.15729808 27.28327052 11.87438774 28.83227348 C11.42721128 31.28104462 10.98857457 33.73121494 10.55201721 36.18190002 C9.62570348 41.37266313 8.68824339 46.56138223 7.75 51.75 C6.65931683 57.78815632 5.57318147 63.82708406 4.49598885 69.86766243 C4.06252714 72.28664302 3.62206807 74.70428206 3.18125916 77.12193298 C2.91796524 78.59221792 2.65497327 80.06255697 2.39233398 81.53295898 C2.15916977 82.82121078 1.92600555 84.10946259 1.68577576 85.43675232 C1.56259476 86.38574905 1.43941376 87.33474579 1.3125 88.3125 C1.6425 88.6425 1.9725 88.9725 2.3125 89.3125 C7.76211941 84.93001139 13.14396925 80.52400633 18.3125 75.8125 C22.61241791 71.89358748 27.07169547 68.22079131 31.59375 64.5625 C34.23397729 62.37748431 36.7797972 60.12078609 39.3125 57.8125 C42.63239486 54.78967579 46.01014112 51.88737839 49.5 49.0625 C55.93961993 43.84731485 62.16705403 38.39918248 68.41601562 32.95898438 C71.39105216 30.37612568 74.38196867 27.81196403 77.375 25.25 C77.94404053 24.76273437 78.51308105 24.27546875 79.09936523 23.7734375 C80.83678535 22.28611735 82.57458849 20.79924593 84.3125 19.3125 C86.16402346 17.72842427 88.01538715 16.1441792 89.86499023 14.55786133 C91.06771896 13.52978203 92.2742005 12.50607485 93.48461914 11.48706055 C95.9462179 9.40561535 98.26862535 7.35930491 100.4765625 5.00390625 C103.50277203 1.80385064 105.29011775 0.46907054 109.73046875 -0.2109375 C115.85614941 -0.37598175 120.21065685 -0.32501157 125.3125 3.3125 C126.87235209 4.87235209 126.55702344 6.40156098 126.625 8.5625 C126.68107422 9.71492188 126.68107422 9.71492188 126.73828125 10.890625 C125.82201484 16.10241558 121.46607867 19.19324919 117.5 22.3125 C112.91302801 25.99061717 108.43262992 29.76238582 104 33.625 C102.71744882 34.74088645 101.43489673 35.85677186 100.15234375 36.97265625 C99.51538574 37.52711426 98.87842773 38.08157227 98.22216797 38.65283203 C91.17977609 44.7732846 84.12247199 50.87280337 76.875 56.75 C71.82316283 60.85229949 66.9094402 65.09951978 62.00244141 69.37255859 C57.42153362 73.35953759 52.80508493 77.30061681 48.16113281 81.21386719 C45.35574477 83.57946384 42.55931538 85.95453788 39.77734375 88.34765625 C38.88728638 89.11323853 38.88728638 89.11323853 37.97924805 89.89428711 C36.79603536 90.91337519 35.61388421 91.93369722 34.43286133 92.95532227 C31.66147832 95.34258416 28.87130869 97.68295967 25.984375 99.9296875 C24.97890625 100.71601563 23.9734375 101.50234375 22.9375 102.3125 C22.04289062 102.993125 21.14828125 103.67375 20.2265625 104.375 C17.84397274 106.33284493 17.84397274 106.33284493 18.3125 110.3125 C19.59740123 112.22395129 19.59740123 112.22395129 21.42578125 114 C22.42411987 115.03894409 22.42411987 115.03894409 23.44262695 116.09887695 C24.16281006 116.82937256 24.88299316 117.55986816 25.625 118.3125 C27.10477825 119.84706674 28.5839429 121.3822254 30.0625 122.91796875 C30.79082031 123.66868652 31.51914063 124.4194043 32.26953125 125.19287109 C34.93750446 127.96095707 37.53549878 130.78332351 40.125 133.625 C40.98867187 134.57117188 41.85234375 135.51734375 42.7421875 136.4921875 C43.59039063 137.42289063 44.43859375 138.35359375 45.3125 139.3125 C47.12428207 141.29233142 48.93659741 143.27165477 50.75 145.25 C51.20157471 145.74282471 51.65314941 146.23564941 52.1184082 146.7434082 C56.01248748 150.99080462 59.92126913 155.22452958 63.83178711 159.45678711 C67.61856208 163.55662987 71.39455926 167.66617871 75.15917969 171.78637695 C77.56532118 174.41728221 79.98410283 177.03506908 82.421875 179.63671875 C98.98294112 197.34647005 98.98294112 197.34647005 99.6875 203.6875 C99.3125 207.3125 99.3125 207.3125 97.25 209.49609375 C91.75665905 212.89290697 85.48834137 212.2971515 79.3125 211.3125 C76.11508798 209.50645328 74.48453665 207.2110982 72.3125 204.3125 C67.7180544 198.84073748 62.84624094 193.62604998 57.9375 188.4375 C53.12110094 183.32474333 48.35968972 178.17541778 43.68359375 172.93359375 C40.5985955 169.52332386 37.45618706 166.16861517 34.3125 162.8125 C29.72517298 157.91486628 25.19293618 152.97769864 20.72265625 147.97265625 C17.00478404 143.86913766 13.2093701 139.83856509 9.42089844 135.80029297 C5.44873348 131.55744682 1.55939881 127.25563905 -2.234375 122.8515625 C-3.62781477 121.19928721 -3.62781477 121.19928721 -5.6875 120.3125 C-5.72343262 120.90285538 -5.75936523 121.49321075 -5.79638672 122.10145569 C-6.4737866 131.14367778 -8.14751626 139.97257244 -9.8125 148.87109375 C-10.12295772 150.54965462 -10.43300919 152.22829068 -10.74267578 153.90699768 C-11.38859531 157.40300069 -12.03769827 160.89839078 -12.68945312 164.39331055 C-13.52431522 168.8702125 -14.3537065 173.3481049 -15.18106079 177.8263998 C-15.9730948 182.11246116 -16.76763262 186.39805709 -17.5625 190.68359375 C-17.71334045 191.49780729 -17.86418091 192.31202084 -18.01959229 193.15090752 C-18.44658602 195.45299494 -18.87533783 197.75474744 -19.3046875 200.05639648 C-19.49330353 201.07488678 -19.49330353 201.07488678 -19.68572998 202.11395264 C-20.26585717 205.21386151 -20.92195731 208.25032924 -21.6875 211.3125 C-29.6075 211.3125 -37.5275 211.3125 -45.6875 211.3125 C-45.10034229 204.85376522 -44.56056134 198.92713538 -43.38604736 192.64160156 C-43.19404696 191.60252246 -43.19404696 191.60252246 -42.99816775 190.54245186 C-42.57549833 188.2617574 -42.1456974 185.98247093 -41.71582031 183.703125 C-41.40808299 182.05083178 -41.10079378 180.39845505 -40.79391479 178.7460022 C-39.96347628 174.28131996 -39.12682543 169.81782235 -38.28903294 165.35451508 C-37.4068433 160.64865068 -36.53049452 155.94169872 -35.65350342 151.23486328 C-33.98836597 142.30285428 -32.3181036 133.37181178 -30.64594722 124.44111443 C-28.76250119 114.38070055 -26.88447983 104.31927676 -25.00706339 94.25773621 C-22.70912734 81.9426079 -20.4105181 69.62760677 -18.10723877 57.31347656 C-17.86325202 56.00873131 -17.86325202 56.00873131 -17.61433625 54.67762756 C-16.82876378 50.47689029 -16.04268463 46.27624916 -15.25554276 42.07580566 C-13.87007825 34.67750607 -12.49430484 27.27775081 -11.14880371 19.87207031 C-10.79956911 17.95746506 -10.79956911 17.95746506 -10.44327927 16.00418091 C-10.0165378 13.65948503 -9.59301049 11.31420094 -9.1733284 8.9682312 C-8.98970119 7.96051666 -8.80607399 6.95280212 -8.61688232 5.91455078 C-8.46008373 5.0424295 -8.30328514 4.17030823 -8.14173508 3.27175903 C-7.14749418 -1.01671526 -3.87846323 0.07700188 0 0 Z " fill="#EE2621" transform="translate(2274.6875,253.6875)"/>
<path d="M0 0 C2.11276954 0.00560481 4.22554302 0.00987072 6.33831787 0.01286316 C11.86207098 0.02424223 17.38558226 0.0536488 22.90924072 0.0869751 C28.5605543 0.11782655 34.21190748 0.13140053 39.86328125 0.14648438 C50.92458461 0.17852588 61.98570959 0.22963708 73.046875 0.29296875 C73.13394392 3.56363441 73.18728741 6.8340024 73.234375 10.10546875 C73.25951172 11.03423828 73.28464844 11.96300781 73.31054688 12.91992188 C73.32504883 14.25893555 73.32504883 14.25893555 73.33984375 15.625 C73.36340942 16.85827026 73.36340942 16.85827026 73.38745117 18.11645508 C73.046875 20.29296875 73.046875 20.29296875 71.73909855 22.06063747 C68.93726578 24.10102165 65.7654789 23.71449468 62.42944336 23.69360352 C61.65502899 23.70058258 60.88061462 23.70756165 60.08273315 23.7147522 C57.51728513 23.73477705 54.95223814 23.734229 52.38671875 23.734375 C50.59891172 23.74614924 48.81111452 23.75951357 47.02333069 23.7743988 C42.30730962 23.8106471 37.59137545 23.83079568 32.87524414 23.84594727 C25.35189757 23.87072647 17.82874359 23.91076935 10.30557442 23.96784782 C7.68787677 23.9840582 5.0703629 23.98794501 2.45262146 23.99085999 C-15.05380784 23.93697515 -15.05380784 23.93697515 -29.953125 32.29296875 C-34.12685205 37.33294104 -34.64693881 42.95993425 -34.390625 49.34375 C-32.43163267 62.54945721 -18.31565214 73.09421797 -9.390625 81.98046875 C-8.49666016 82.87830078 -7.60269531 83.77613281 -6.68164062 84.70117188 C-5.80056641 85.58095703 -4.91949219 86.46074219 -4.01171875 87.3671875 C-2.84080688 88.53640747 -2.84080688 88.53640747 -1.64624023 89.72924805 C0.49790348 91.77037334 2.66967299 93.72155886 4.90576172 95.65844727 C8.86282767 99.0970249 12.6347818 102.68739016 16.36328125 106.37109375 C17.02343735 107.0231781 17.68359344 107.67526245 18.36375427 108.34710693 C19.74745046 109.71708533 21.12968385 111.08854265 22.51049805 112.46142578 C23.90707862 113.84647242 25.3081179 115.22703797 26.71362305 116.60302734 C39.97737377 129.58931969 51.98937176 142.99121872 52.359375 162.54296875 C52.3872758 176.00045554 49.38167583 189.48188215 39.94140625 199.53515625 C29.98632002 208.89053849 19.63953488 211.63159383 6.21264648 211.52001953 C4.80616096 211.52045761 4.80616096 211.52045761 3.3712616 211.52090454 C0.3033998 211.51952254 -2.76421242 211.50401494 -5.83203125 211.48828125 C-7.97151049 211.4845471 -10.11099145 211.48170203 -12.25047302 211.47970581 C-17.85805046 211.47210102 -23.46552289 211.4524798 -29.07305908 211.43029785 C-34.80455098 211.40977126 -40.53605999 211.40068956 -46.26757812 211.390625 C-57.49613967 211.36923078 -68.72462357 211.33513318 -79.953125 211.29296875 C-80.06141814 208.39612717 -80.14056454 205.50335856 -80.203125 202.60546875 C-80.23664062 201.78884766 -80.27015625 200.97222656 -80.3046875 200.13085938 C-80.36796516 196.22346391 -80.20322327 193.79159052 -78.42642212 190.24917603 C-75.07565525 187.59895075 -72.22993822 187.60692198 -68.13037109 187.68115234 C-66.95390015 187.67265511 -66.95390015 187.67265511 -65.75366211 187.66398621 C-63.16080931 187.65048391 -60.56935442 187.67143782 -57.9765625 187.69140625 C-56.16776576 187.68590415 -54.35897527 187.67777781 -52.55020142 187.66714478 C-47.78307925 187.64423539 -43.016415 187.64848227 -38.24926758 187.66094971 C-30.64108887 187.67923096 -23.03318292 187.66912098 -15.4250679 187.63508987 C-12.7783955 187.62902503 -10.1323133 187.64220216 -7.48568726 187.65707397 C8.4012301 187.6922485 8.4012301 187.6922485 22.046875 180.29296875 C26.42945079 173.95741489 28.28887486 167.93604479 27.046875 160.29296875 C24.14992869 148.09530008 13.69693349 139.7874046 5.13671875 131.25 C4.32497696 130.43730148 3.51323517 129.62460297 2.67689514 128.78727722 C0.97649782 127.08620524 -0.72513946 125.38637186 -2.42797852 123.68774414 C-5.01629155 121.10480359 -7.59920061 118.51654534 -10.18164062 115.92773438 C-11.84603354 114.2640021 -13.51073654 112.60057996 -15.17578125 110.9375 C-15.93746109 110.17379593 -16.69914093 109.41009186 -17.48390198 108.62324524 C-21.60740302 104.51752195 -25.82070053 100.58361473 -30.22822571 96.78434753 C-39.67837714 88.61357755 -49.35174057 79.58244635 -54.953125 68.29296875 C-55.37980469 67.48472656 -55.80648437 66.67648437 -56.24609375 65.84375 C-61.14141339 54.93370316 -60.3746823 40.27359678 -56.98828125 28.99609375 C-53.19995945 19.1035704 -47.70230375 10.22275412 -38.203125 4.98046875 C-25.62313487 -0.27731539 -13.39436356 -0.10496816 0 0 Z " fill="#EE2621" transform="translate(2486.953125,253.70703125)"/>
<path d="M0 0 C1.48524651 -0.01713476 2.970494 -0.03418549 4.45574188 -0.05120087 C5.28283897 -0.06070503 6.10993606 -0.07020919 6.96209669 -0.08000135 C10.71026072 -0.12081745 14.45847703 -0.14242496 18.20678711 -0.16479492 C20.27193791 -0.17989271 22.3370566 -0.20037274 24.40209961 -0.22631836 C27.36840739 -0.26265795 30.33429171 -0.2797163 33.30078125 -0.29296875 C34.2258699 -0.30845261 35.15095856 -0.32393646 36.1040802 -0.33988953 C36.96474594 -0.34011612 37.82541168 -0.34034271 38.7121582 -0.34057617 C39.46938675 -0.34723801 40.2266153 -0.35389984 41.00679016 -0.36076355 C43.62838872 0.11373602 44.44588113 0.84956493 46 3 C47.44897026 7.58612777 46.58873775 11.69901603 45.71559143 16.30793762 C45.49023591 17.5577875 45.49023591 17.5577875 45.26032776 18.83288687 C44.75467799 21.62439961 44.23584278 24.41329658 43.71704102 27.20239258 C43.3518665 29.20295977 42.98750654 31.20367579 42.62390137 33.20452881 C41.63421919 38.63741868 40.6331336 44.06815223 39.63001752 49.49857545 C38.58373041 55.17351688 37.54790161 60.85036623 36.51097107 66.52702332 C34.54567755 77.27697055 32.5709582 88.02516389 30.59286302 98.772762 C28.34138357 111.0083128 26.10039378 123.24577722 23.8602916 135.48341525 C19.25187848 160.65776427 14.62888803 185.82940712 10 211 C-5.84 211 -21.68 211 -38 211 C-37.40326297 204.43589265 -36.83001384 198.38006687 -35.65385437 191.97828674 C-35.52106498 191.24795996 -35.38827559 190.51763318 -35.25146228 189.76517528 C-34.8125021 187.35762968 -34.36661486 184.95142388 -33.9206543 182.54516602 C-33.60146043 180.8026938 -33.28269592 179.0601429 -32.96432495 177.31752014 C-32.10290277 172.60953967 -31.23539631 167.90269921 -30.36667228 163.19606137 C-29.45363729 158.2439495 -28.54598165 153.29085159 -27.63764954 148.33787537 C-26.11011281 140.01280998 -24.5788956 131.68842854 -23.04516602 123.36450195 C-21.08703928 112.73716808 -19.13489693 102.10874439 -17.1847105 91.4799509 C-15.49715704 82.28279786 -13.8068587 73.08614958 -12.11611581 63.8895824 C-11.5784301 60.96431798 -11.04110155 58.03898812 -10.50382042 55.11364937 C-9.6525736 50.47987266 -8.79959787 45.84641708 -7.94538498 41.21318626 C-7.63531073 39.53010269 -7.32573659 37.84692688 -7.01675224 36.16364288 C-4.79884989 24.08405279 -2.43662871 12.03734888 0 0 Z " fill="#EE2621" transform="translate(1264,253)"/>
</svg>
